<svg id="Camada_4" data-name="Camada 4" xmlns="http://www.w3.org/2000/svg" viewBox="0 0 15.14 21.51"><path d="M8.48,20.41h8.77V9.26H8.48Zm4.78-9.56h3.19v1.6H13.26Zm0,2.39h3.19v1.6H13.26Zm0,2.39h3.19v1.6H13.26Zm0,2.39h3.19v1.6H13.26Zm-4-7.17h3.19v1.6H9.28Zm0,2.39h3.19v1.6H9.28Zm0,2.39h3.19v1.6H9.28Zm0,2.39h3.19v1.6H9.28Z" transform="translate(-5.3 -1.29)"/><path d="M15.65,1.29H6.89A1.6,1.6,0,0,0,5.3,2.89V21.21A1.59,1.59,0,0,0,6.89,22.8h12a1.59,1.59,0,0,0,1.59-1.59V6.87Zm0,1.2L19.4,6.87H16.45a.86.86,0,0,1-.8-.8Zm4,18.72a.8.8,0,0,1-.8.8H6.89a.8.8,0,0,1-.8-.8V2.89a.8.8,0,0,1,.8-.8h8v4a1.6,1.6,0,0,0,1.59,1.6h3.19Z" transform="translate(-5.3 -1.29)"/></svg>