<?xml version="1.0" encoding="UTF-8"?>
<!DOCTYPE svg PUBLIC "-//W3C//DTD SVG 1.1//EN" "http://www.w3.org/Graphics/SVG/1.1/DTD/svg11.dtd">
<!-- Creator: CorelDRAW (Versão de avaliação) -->
<svg xmlns="http://www.w3.org/2000/svg" xml:space="preserve" width="5.9266mm" height="5.9266mm" version="1.1" shape-rendering="geometricPrecision" text-rendering="geometricPrecision" image-rendering="optimizeQuality" fill-rule="evenodd" clip-rule="evenodd"
viewBox="0 0 592.66 592.66"
 xmlns:xlink="http://www.w3.org/1999/xlink"
 xmlns:xodm="http://www.corel.com/coreldraw/odm/2003">
 <g id="Camada_x0020_1">
  <metadata id="CorelCorpID_0Corel-Layer"/>
  <g id="_105553212997408">
   <path fill="#5181A5" d="M324.27 464.1c3.88,-0.87 108.14,-0.87 111.71,-0.03l-0.04 55.17c-3.47,0.82 -107.87,0.83 -111.7,-0.03l0.03 -55.11zm-167.59 -0.34c32.22,-0.07 80.95,-0.9 111.71,0.35l-0.03 55.35c-32.66,0.49 -79.42,0.65 -111.67,-0.22l0 -49.55 -0.01 -5.93zm279.12 -28.12c-8.42,1 -87.09,0 -105.97,0.16 -5.36,0.05 -5.64,1.11 -5.61,-4.05 0.09,-13.43 -1.13,-42.04 0.21,-51.63 7.64,-1.01 87.65,0 105.96,-0.18 5.37,-0.05 5.64,-1.1 5.6,4.06 -0.08,13.85 1.12,41.28 -0.19,51.64zm-167.62 -0.06c-2.33,1.05 -10.84,0.62 -13.56,0.62 -4.71,0 -9.43,-0.05 -14.15,-0.05 -9.43,0.01 -18.86,0.04 -28.29,0 -8.65,-0.03 -51.01,0.63 -55.88,-0.31l0.35 -56.26 111.78 0.36c0.87,3.74 0.47,34.3 0.37,42.09 -0.04,3.34 0.52,11.14 -0.62,13.55zm56.1 -139.06c3.36,-0.82 107.77,-0.85 111.7,0.02l-0.06 55.12c-3.76,0.84 -108.3,0.82 -111.68,0.02l0.04 -55.16zm-167.57 0.02c3.82,-0.86 108.18,-0.86 111.71,-0.02l-0.07 55.15c-3.18,0.79 -107.81,0.84 -111.67,-0.01l0.03 -55.12zm167.54 -236.97c2.54,0.85 35.42,34.92 38.35,37.78l76.74 76.66c2.43,2.39 37.01,36.15 37.73,38.38l-152.82 -0.17 0 -152.65zm-214.6 -39.62c-3.46,2.78 -15.09,4.58 -26.57,20.54 -1.36,1.89 -4.53,8.58 -5.52,9.18l-4.83 16.51 0.27 4.35c-0.73,79.32 -0.03,158.94 -0.04,238.3l0 208.52c0.06,11.93 1.84,15.37 4.61,25.31 0.95,0.58 4.46,7.82 5.83,9.62 2.61,3.46 4.18,5.08 7.29,8.36 6.22,6.54 17.13,10.19 18.81,11.61 20.58,5.11 68.13,3.04 92.25,3.18l259.9 -0.04c9.72,-0.03 12.91,-1.19 21.51,-3.14l-0.05 -0.4 2.09 0.03 21.47 -16.21c3.93,-4.94 7.38,-12.37 8.42,-13.01 0.6,-2.2 4.45,-17 4.91,-17.69l-0.33 -3.16 -0.11 -337.35 -94.43 -94.54c-6.86,-7.86 -24.15,-23.39 -31.18,-31.37l-10.58 -10.29c-2,-2.21 -3.85,-3.74 -5.13,-5.29 -1.81,-2.2 -3.09,-3.42 -5.06,-5.36l-21 -20.55 -214.48 -0.13c-20.98,0.12 -10.46,-0.27 -28.05,3.02z"/>
   <path fill="white" d="M324.27 464.1c3.88,-0.87 108.14,-0.87 111.71,-0.03l-0.04 55.17c-3.47,0.82 -107.87,0.83 -111.7,-0.03l0.03 -55.11zm-167.59 -0.34c32.22,-0.07 80.95,-0.9 111.71,0.35l-0.03 55.35c-32.66,0.49 -79.42,0.65 -111.67,-0.22l0 -49.55 -0.01 -5.93zm279.12 -28.12c-8.42,1 -87.09,0 -105.97,0.16 -5.36,0.05 -5.64,1.11 -5.61,-4.05 0.09,-13.43 -1.13,-42.04 0.21,-51.63 7.64,-1.01 87.65,0 105.96,-0.18 5.37,-0.05 5.64,-1.1 5.6,4.06 -0.08,13.85 1.12,41.28 -0.19,51.64zm-167.62 -0.06c-2.33,1.05 -10.84,0.62 -13.56,0.62 -4.71,0 -9.43,-0.05 -14.15,-0.05 -9.43,0.01 -18.86,0.04 -28.29,0 -8.65,-0.03 -51.01,0.63 -55.88,-0.31l0.35 -56.26 111.78 0.36c0.87,3.74 0.47,34.3 0.37,42.09 -0.04,3.34 0.52,11.14 -0.62,13.55zm56.1 -139.06c3.36,-0.82 107.77,-0.85 111.7,0.02l-0.06 55.12c-3.76,0.84 -108.3,0.82 -111.68,0.02l0.04 -55.16zm-167.57 0.02c3.82,-0.86 108.18,-0.86 111.71,-0.02l-0.07 55.15c-3.18,0.79 -107.81,0.84 -111.67,-0.01l0.03 -55.12z"/>
  </g>
 </g>
</svg>
