<?xml version="1.0" encoding="UTF-8"?>
<!DOCTYPE svg PUBLIC "-//W3C//DTD SVG 1.1//EN" "http://www.w3.org/Graphics/SVG/1.1/DTD/svg11.dtd">
<!-- Creator: CorelDRAW (Versão de avaliação) -->
<svg xmlns="http://www.w3.org/2000/svg" xml:space="preserve" width="39.6874mm" height="39.6874mm" version="1.1" shape-rendering="geometricPrecision" text-rendering="geometricPrecision" image-rendering="optimizeQuality" fill-rule="evenodd" clip-rule="evenodd"
viewBox="0 0 3968.74 3968.74"
 xmlns:xlink="http://www.w3.org/1999/xlink"
 xmlns:xodm="http://www.corel.com/coreldraw/odm/2003">
 <g id="Camada_x0020_1">
  <metadata id="CorelCorpID_0Corel-Layer"/>
  <g id="_105553345524448">
   <path fill="#FFB61B" d="M11.77 2755.84c26.66,-18.74 51.91,-52.01 76.09,-84.58 155.18,-208.96 471.53,-451.45 714.85,-577.01 738.23,-380.91 1616.72,-386.81 2354.57,-5.37 537.29,277.76 746.6,630.6 802.41,666.96 11.29,-779.75 71.01,-1471.56 -365.25,-1992.39 -882.75,-1053.9 -2463.1,-955.22 -3217.76,-0.41 -434.91,550.27 -382.87,1184.64 -364.91,1992.8z"/>
   <path fill="#FFB61B" d="M804.87 3955.6l2361.39 3.61c46.59,-549.83 -522.85,-1076.6 -1180.49,-1076.75 -380.92,-0.09 -611.5,138 -829.25,304.08 -141.95,108.26 -378.45,459.44 -351.65,769.06z"/>
  </g>
 </g>
</svg>
