<?xml version="1.0" encoding="UTF-8"?>
<!DOCTYPE svg PUBLIC "-//W3C//DTD SVG 1.1//EN" "http://www.w3.org/Graphics/SVG/1.1/DTD/svg11.dtd">
<!-- Creator: CorelDRAW (Versão de avaliação) -->
<svg xmlns="http://www.w3.org/2000/svg" xml:space="preserve" width="39.6874mm" height="39.6874mm" version="1.1" shape-rendering="geometricPrecision" text-rendering="geometricPrecision" image-rendering="optimizeQuality" fill-rule="evenodd" clip-rule="evenodd"
viewBox="0 0 3968.74 3968.74"
 xmlns:xlink="http://www.w3.org/1999/xlink"
 xmlns:xodm="http://www.corel.com/coreldraw/odm/2003">
 <g id="Camada_x0020_1">
  <metadata id="CorelCorpID_0Corel-Layer"/>
  <path fill="#FEFEFE" d="M2514.25 3227.23l42.46 -5.31 1.91 200.02 -43.76 -1.24 -0.61 -193.47zm-1295.85 82.57c23.1,11.36 28.47,22.53 51.42,52.28 11.13,14.43 31.03,36.82 43.85,59.12l-160.81 2.47c-5.89,-46.03 36.18,-86.65 65.54,-113.87zm1362.8 27.22c-19.79,-142.53 188.31,-163.94 209.48,-38.35 24.76,146.84 -192.63,159.72 -209.48,38.35zm-549.02 19.13c-56.68,134.21 -253.8,46.44 -200.59,-77.06 56.42,-130.94 252.63,-46.16 200.59,77.06zm421.03 36c-1.36,2.5 7.34,28.47 -58.5,30.9 -94.75,3.49 -143.01,-81.82 -104.92,-153.67 43.99,-82.98 197.74,-81.89 197.36,70.7l-157.93 0.58c18.41,73.8 71.01,12.49 123.99,51.49zm400.79 -122.09c29.44,60.63 105.66,1.71 95.48,117.14 -16.99,17.86 -26.2,32.51 -57.68,35.79 -35.15,3.67 -56.45,-5.62 -79.32,-28.58 32.74,-60.28 21.84,5.19 94,-23.54 -2.17,-47.85 -56.13,-26.05 -96.03,-74.69 -2.59,-39.46 2.52,-64.76 39.51,-76.71 37.17,-12 82.13,-8.22 89.76,32.13 -50.5,30.76 -36.95,-14 -85.72,18.46zm-634.14 5.41l-3.33 147.86 -31.98 -0.5c-10.69,-16.87 -10.53,2.79 -10.06,-66.51 0.15,-22.17 -1.83,-56.07 0.77,-76.73 6.67,-53.04 44.27,-61.22 100.26,-59.93 -16.12,63.44 -14.79,21.94 -55.66,55.81zm-112.32 -7.3l-4.27 150.17 -41.87 4.49c-4.82,-120.44 -30.16,-205.23 99.78,-203.64 -11.88,50.03 -13.02,34.48 -53.64,48.98zm-298.17 117.94c-1.7,8.16 5.08,27.74 -47.23,35.53 -197.85,29.49 -208.21,-272.57 -8.74,-255.22 67.39,5.86 55.65,32.17 56.71,36.28 -44.98,31.74 -152.46,-30.18 -157.82,86.38 -5.84,126.78 111.45,63.83 157.08,97.03zm-399.65 -92.28l-135.83 -0.54c10.48,-24.73 0.05,-8.41 19.22,-34.74l164.44 -215.17c27.29,23.49 81.09,85.6 97.73,121.45 -24.77,52.51 -80.84,129.38 -145.56,129zm-296.54 121.16c-26.14,-17.06 -80.33,-84.2 -96.66,-116.23 9.15,-31.17 39.9,-62.56 58.87,-85.64 53.21,-64.77 87.84,-48.55 222.28,-47.41 -11.2,33.55 -135.16,175.05 -184.49,249.28zm239.15 -265.96c-27.96,-16.14 -84.01,-90.7 -91.91,-114.54l157.1 5.99c6.64,48.3 -36.41,84.68 -65.19,108.55zm1072.16 -2376.27l2.24 111.89 111.13 4.81 -2.15 72.2 -110.45 4.4c-0.91,81.59 -17.11,207.96 30.37,257.29l96.57 -13.69 -6.82 85.75c-267.28,36.71 -211.45,-104.66 -216.69,-321.15 -46.98,-31.27 -47.37,16.66 -46.67,-84.32l46.67 -11.32 1.01 -75.37 94.79 -30.49zm469.87 526.2c-20.07,-6.69 -25.23,-18 -40.2,-35 -102.92,48.71 -248.2,68.68 -254.41,-79.04 -5.88,-139.87 114,-155.37 241.44,-157.34 -5.24,-89.87 -107.85,-64.2 -181.23,-55.88l-14.57 -71.62c108.75,-35.96 240.44,-32.26 276.46,64.16 31.68,84.79 8.01,204.4 24.01,263.65 0.12,0.45 56.04,106.92 -51.5,71.07zm-1357.9 -114.25c-5.52,-146.72 120.57,-151.67 241.87,-157.72 -5.25,-94.71 -108.31,-64.56 -180.5,-55.07l-15.11 -72.82c280.33,-82.48 293.75,74.19 293.98,237.78 0.19,145.11 25.48,96.87 25.71,148.57 -52.61,34.43 -78.8,17.52 -110.06,-21.09 -60.03,22.51 -78.38,56.86 -169.81,32.53 -50.59,-13.47 -83.9,-54.28 -86.08,-112.18zm547.73 -152.01l-6.19 264.41c-37.15,8.42 -63.08,10.33 -102.1,-1.76l-1.62 -369.61c3.52,-53.12 1.77,-23.42 13.46,-37.93 58.38,-1.22 64.78,-8.33 89.68,11.75l11.48 10.15c59.45,-35.16 88.66,-38.54 163.06,-20.35 -4.83,34.11 -15.3,58.01 -38.71,81.47 -63.77,-17.79 -123.65,-1.38 -129.06,61.87zm-600.62 209.4c-58.76,63.42 -187.13,87.43 -286.62,40.26 -245.45,-116.38 -164.07,-691.57 272.89,-521.4 -9.06,35.26 -21.63,59.4 -40.98,79.89 -392.11,-162.23 -307.94,584.3 9.56,326.94 16.7,14.02 35.47,41.36 45.15,74.31zm321.94 -1126.48c-985.56,88.6 -1838.3,947.53 -1730.49,2051.77 95.36,976.68 980.88,1774.01 2081.09,1684.59 988.79,-80.35 1836.08,-946.03 1736.91,-2045.17 -88.12,-976.6 -986.45,-1790.17 -2087.51,-1691.19z"/>
  <path fill="#201D18" d="M1483.57 1242.1c-9.68,-32.95 -28.45,-60.29 -45.15,-74.31 -317.5,257.36 -401.67,-489.17 -9.56,-326.94 19.35,-20.49 31.92,-44.63 40.98,-79.89 -436.96,-170.17 -518.34,405.02 -272.89,521.4 99.49,47.17 227.86,23.16 286.62,-40.26z"/>
  <path fill="#201D18" d="M1686.69 1110.56c20.44,-26 59.74,-18.49 93.29,-8.72 5.18,19.1 9.08,22.17 6.28,45.13 -4.96,40.77 -7.02,26.57 -18.68,36.52 -6.02,57.41 -89.56,46.69 -125.31,27.34l-7.45 -76.54c32.13,-20.66 19.16,-19.33 51.87,-23.73zm-103.97 -211.46l15.11 72.82c72.19,-9.49 175.25,-39.64 180.5,55.07 -121.3,6.05 -247.39,11 -241.87,157.72 2.18,57.9 35.49,98.71 86.08,112.18 91.43,24.33 109.78,-10.02 169.81,-32.53 31.26,38.61 57.45,55.52 110.06,21.09 -0.23,-51.7 -25.52,-3.46 -25.71,-148.57 -0.23,-163.59 -13.65,-320.26 -293.98,-237.78z"/>
  <path fill="#201D18" d="M2839.93 1103.8c8.92,42.7 3.71,89.25 -24.24,109.12 -31.37,22.3 -90.55,18.96 -109.98,-3.65 -31.4,-36.54 -10.41,-130.92 134.22,-105.47zm-194.54 -203.72l14.57 71.62c73.38,-8.32 175.99,-33.99 181.23,55.88 -127.44,1.97 -247.32,17.47 -241.44,157.34 6.21,147.72 151.49,127.75 254.41,79.04 14.97,17 20.13,28.31 40.2,35 107.54,35.85 51.62,-70.62 51.5,-71.07 -16,-59.25 7.67,-178.86 -24.01,-263.65 -36.02,-96.42 -167.71,-100.12 -276.46,-64.16z"/>
  <path fill="#201D18" d="M2329.7 803.25l-1.01 75.37 -46.67 11.32c-0.7,100.98 -0.31,53.05 46.67,84.32 5.24,216.49 -50.59,357.86 216.69,321.15l6.82 -85.75 -96.57 13.69c-47.48,-49.33 -31.28,-175.7 -30.37,-257.29l110.45 -4.4 2.15 -72.2 -111.13 -4.81 -2.24 -111.89 -94.79 30.49z"/>
  <path fill="#1F1C17" d="M1987.74 887.81l-1.85 404.26 83.76 0.37c0.76,-31.58 -12.74,-242.49 14.54,-259.74 5.41,-63.25 65.29,-79.66 129.06,-61.87 23.41,-23.46 33.88,-47.36 38.71,-81.47 -74.4,-18.19 -103.61,-14.81 -163.06,20.35l-11.48 -10.15c-24.9,-20.08 -31.3,-12.97 -89.68,-11.75z"/>
  <path fill="#1F1C17" d="M1409.72 3293.83c64.72,0.38 120.79,-76.49 145.56,-129 -16.64,-35.85 -70.44,-97.96 -97.73,-121.45l-164.44 215.17c-19.17,26.33 -8.74,10.01 -19.22,34.74l135.83 0.54z"/>
  <path fill="#1F1C17" d="M1113.18 3414.99c49.33,-74.23 173.29,-215.73 184.49,-249.28 -134.44,-1.14 -169.07,-17.36 -222.28,47.41 -18.97,23.08 -49.72,54.47 -58.87,85.64 16.33,32.03 70.52,99.17 96.66,116.23z"/>
  <path fill="#231F1C" d="M2326.01 3298.09c20.38,-52.54 90.66,-60.32 114.29,0.24l-114.29 -0.24zm127.2 94.06c-52.98,-39 -105.58,22.31 -123.99,-51.49l157.93 -0.58c0.38,-152.59 -153.37,-153.68 -197.36,-70.7 -38.09,71.85 10.17,157.16 104.92,153.67 65.84,-2.43 57.14,-28.4 58.5,-30.9z"/>
  <path fill="#231F1C" d="M1869.57 3296.57c50.43,-65.18 125.47,-55.85 124.73,44.24 -10.82,12.98 -19.41,23.75 -29.13,33.05 -69.86,13.61 -97.46,-10.66 -95.6,-77.29zm162.61 59.58c52.04,-123.22 -144.17,-208 -200.59,-77.06 -53.21,123.5 143.91,211.27 200.59,77.06z"/>
  <path fill="#22211D" d="M2720.46 3373.8l-67.62 3.2c-38.82,-45.11 -39.99,-114.11 29.32,-118.61 71.27,-4.63 85.75,69.15 38.3,115.41zm-139.26 -36.78c16.85,121.37 234.24,108.49 209.48,-38.35 -21.17,-125.59 -229.27,-104.18 -209.48,38.35z"/>
  <path fill="#21201C" d="M1809.37 3386.11c-45.63,-33.2 -162.92,29.75 -157.08,-97.03 5.36,-116.56 112.84,-54.64 157.82,-86.38 -1.06,-4.11 10.68,-30.42 -56.71,-36.28 -199.47,-17.35 -189.11,284.71 8.74,255.22 52.31,-7.79 45.53,-27.37 47.23,-35.53z"/>
  <path fill="#21201C" d="M2854 3270.06c48.77,-32.46 35.22,12.3 85.72,-18.46 -7.63,-40.35 -52.59,-44.13 -89.76,-32.13 -36.99,11.95 -42.1,37.25 -39.51,76.71 39.9,48.64 93.86,26.84 96.03,74.69 -72.16,28.73 -61.26,-36.74 -94,23.54 22.87,22.96 44.17,32.25 79.32,28.58 31.48,-3.28 40.69,-17.93 57.68,-35.79 10.18,-115.43 -66.04,-56.51 -95.48,-117.14z"/>
  <path fill="#FCFCFC" d="M2839.93 1103.8c-144.63,-25.45 -165.62,68.93 -134.22,105.47 19.43,22.61 78.61,25.95 109.98,3.65 27.95,-19.87 33.16,-66.42 24.24,-109.12z"/>
  <path fill="#FCFCFC" d="M1767.58 1183.49l6.28 -77.59 -87.17 4.66c-32.71,4.4 -19.74,3.07 -51.87,23.73l7.45 76.54c35.75,19.35 119.29,30.07 125.31,-27.34z"/>
  <path fill="#FCFCFC" d="M1869.57 3296.57c-1.86,66.63 25.74,90.9 95.6,77.29 9.72,-9.3 18.31,-20.07 29.13,-33.05 0.74,-100.09 -74.3,-109.42 -124.73,-44.24z"/>
  <path fill="#FBFBFB" d="M2720.46 3373.8c47.45,-46.26 32.97,-120.04 -38.3,-115.41 -69.31,4.5 -68.14,73.5 -29.32,118.61l67.62 -3.2z"/>
  <path fill="#201D18" d="M1218.4 3309.8c-29.36,27.22 -71.43,67.84 -65.54,113.87l160.81 -2.47c-12.82,-22.3 -32.72,-44.69 -43.85,-59.12 -22.95,-29.75 -28.32,-40.92 -51.42,-52.28z"/>
  <path fill="#221E1B" d="M1352.33 3149.03c28.78,-23.87 71.83,-60.25 65.19,-108.55l-157.1 -5.99c7.9,23.84 63.95,98.4 91.91,114.54z"/>
  <path fill="#25221E" d="M2107.54 3268.17c40.62,-14.5 41.76,1.05 53.64,-48.98 -129.94,-1.59 -104.6,83.2 -99.78,203.64l41.87 -4.49 4.27 -150.17z"/>
  <path fill="#23201B" d="M2219.86 3275.47c40.87,-33.87 39.54,7.63 55.66,-55.81 -55.99,-1.29 -93.59,6.89 -100.26,59.93 -2.6,20.66 -0.62,54.56 -0.77,76.73 -0.47,69.3 -0.63,49.64 10.06,66.51l31.98 0.5 3.33 -147.86z"/>
  <path fill="#8D8C8A" d="M2084.19 1032.7c-27.28,17.25 -13.78,228.16 -14.54,259.74l-83.76 -0.37 1.85 -404.26c-11.69,14.51 -9.94,-15.19 -13.46,37.93l1.62 369.61c39.02,12.09 64.95,10.18 102.1,1.76l6.19 -264.41z"/>
  <polygon fill="#262320" points="2514.86,3420.7 2558.62,3421.94 2556.71,3221.92 2514.25,3227.23 "/>
  <path fill="#F8F6F5" d="M2326.01 3298.09l114.29 0.24c-23.63,-60.56 -93.91,-52.78 -114.29,-0.24z"/>
  <path fill="#A9A6A3" d="M1767.58 1183.49c11.66,-9.95 13.72,4.25 18.68,-36.52 2.8,-22.96 -1.1,-26.03 -6.28,-45.13 -33.55,-9.77 -72.85,-17.28 -93.29,8.72l87.17 -4.66 -6.28 77.59z"/>
  <circle fill="none" stroke="#373535" stroke-width="79.37" stroke-miterlimit="22.9256" cx="1984.37" cy="1984.37" r="1918.23"/>
 </g>
</svg>
