<?xml version="1.0" encoding="UTF-8"?>
<!DOCTYPE svg PUBLIC "-//W3C//DTD SVG 1.1//EN" "http://www.w3.org/Graphics/SVG/1.1/DTD/svg11.dtd">
<!-- Creator: CorelDRAW (Versão de avaliação) -->
<svg xmlns="http://www.w3.org/2000/svg" xml:space="preserve" width="35.4542mm" height="6.8792mm" version="1.1" shape-rendering="geometricPrecision" text-rendering="geometricPrecision" image-rendering="optimizeQuality" fill-rule="evenodd" clip-rule="evenodd"
viewBox="0 0 3545.42 687.92"
 xmlns:xlink="http://www.w3.org/1999/xlink"
 xmlns:xodm="http://www.corel.com/coreldraw/odm/2003">
 <g id="Camada_x0020_1">
  <metadata id="CorelCorpID_0Corel-Layer"/>
  <g id="_105553348500896">
   <rect fill="#373535" stroke="#373535" stroke-width="20" stroke-miterlimit="22.9256" y="0" width="3545.42" height="687.91"/>
   <path fill="white" fill-rule="nonzero" d="M806.88 339.97c0,21.3 -3.01,41 -8.54,58.28 -6.04,17.29 -15.08,32.16 -27.15,44.62 -12.06,12.46 -27.14,21.71 -45.74,28.54 -18.59,6.83 -40.71,10.05 -66.34,10.05l-100.02 0 0 -284.59 100.02 0c25.63,0 47.75,3.22 66.34,10.05 18.6,6.83 33.68,16.08 45.74,28.54 12.07,12.46 21.11,27.74 27.15,45.02 5.53,17.69 8.54,37.38 8.54,59.49zm-80.93 0c0,-28.54 -6.02,-50.24 -18.09,-65.12 -12.56,-14.47 -28.14,-21.7 -47.74,-21.7l-19.6 0 0 172.04 19.6 0c19.6,0 35.18,-7.24 47.74,-22.11 12.07,-14.47 18.09,-35.37 18.09,-63.11z"/>
   <polygon id="_1" fill="white" fill-rule="nonzero" points="855.63,481.46 855.63,196.87 1027.52,196.87 1027.52,253.55 932.53,253.55 932.53,309.42 1019.98,309.42 1019.98,362.48 932.53,362.48 932.53,423.98 1033.56,423.98 1033.56,481.46 "/>
   <path id="_2" fill="white" fill-rule="nonzero" d="M1228.07 265.21c-6.04,-5.63 -13.06,-10.05 -21.1,-13.27 -8.06,-2.81 -16.6,-4.42 -25.14,-4.42 -9.05,0 -17.09,2.41 -24.13,6.83 -7.54,4.42 -11.05,12.06 -11.05,22.51 0,8.85 3.51,15.68 11.05,20.5 7.54,5.23 18.09,10.45 32.67,16.48 8.04,3.22 16.6,6.84 25.64,11.26 8.54,4.42 16.59,10.05 24.12,16.48 7.54,6.43 13.58,14.07 18.6,22.91 4.52,9.24 7.03,19.7 7.03,32.16 0,15.27 -3.01,28.54 -9.04,40.19 -6.03,11.66 -14.08,21.31 -24.12,28.94 -10.57,7.64 -22.12,13.67 -35.69,17.69 -13.58,3.62 -27.14,5.63 -41.72,5.63 -21.61,0 -40.71,-3.22 -58.3,-9.65 -17.59,-6.43 -32.17,-14.07 -42.72,-22.51l41.21 -48.23c7.54,6.43 16.59,11.65 26.64,15.27 10.05,4.02 20.1,6.03 30.65,6.03 9.56,0 18.1,-2.41 24.64,-7.64 6.54,-5.22 10.05,-12.06 10.05,-21.3 0,-9.25 -4.03,-16.88 -12.07,-22.51 -8.04,-5.23 -19.59,-11.26 -35.18,-17.29 -9.54,-3.61 -18.59,-8.04 -27.14,-12.46 -8.54,-4.42 -16.08,-10.05 -22.61,-16.48 -6.53,-6.43 -12.07,-14.07 -15.58,-22.51 -3.52,-8.44 -5.53,-18.89 -5.53,-30.55 0,-15.67 3.51,-29.34 10.05,-41 6.53,-11.25 15.08,-20.5 25.63,-27.73 10.56,-7.24 22.11,-12.46 35.18,-16.08 12.56,-3.62 25.63,-5.22 38.71,-5.22 19.59,0 36.69,2.41 52.27,7.63 15.58,5.23 28.14,12.06 38.7,20.9l-41.72 47.44z"/>
   <polygon id="_3" fill="white" fill-rule="nonzero" points="1421.57,251.54 1421.57,481.46 1342.66,481.46 1342.66,251.54 1277.33,251.54 1277.33,196.87 1486.92,196.87 1486.92,251.54 "/>
   <polygon id="_4" fill="white" fill-rule="nonzero" points="1518.06,481.46 1518.06,196.87 1598.99,196.87 1598.99,481.46 "/>
   <polygon id="_5" fill="white" fill-rule="nonzero" points="1816.11,481.46 1733.68,308.22 1732.18,308.22 1734.18,481.46 1662.31,481.46 1662.31,196.87 1750.77,196.87 1832.7,372.53 1834.2,372.53 1832.7,196.87 1902.06,196.87 1902.06,481.46 "/>
   <path id="_6" fill="white" fill-rule="nonzero" d="M2123.2 481.46l-14.58 -51.85 -79.91 0 -14.58 51.85 -80.41 0 86.45 -284.59 101.02 0 85.95 284.59 -83.94 0zm-53.28 -222.69l-2.01 0 -30.15 120.99 60.81 0 -28.65 -120.99z"/>
   <polygon id="_7" fill="white" fill-rule="nonzero" points="2341.33,251.54 2341.33,481.46 2262.42,481.46 2262.42,251.54 2197.09,251.54 2197.09,196.87 2406.68,196.87 2406.68,251.54 "/>
   <path id="_8" fill="white" fill-rule="nonzero" d="M2595.65 481.46l-14.58 -51.85 -79.91 0 -14.58 51.85 -80.42 0 86.46 -284.59 101.01 0 85.96 284.59 -83.94 0zm-53.28 -222.69l-2.01 0 -30.15 120.99 60.81 0 -28.65 -120.99zm11.56 -84.41l-54.29 0 45.24 -57.88 65.35 0 -56.3 57.88z"/>
   <path id="_9" fill="white" fill-rule="nonzero" d="M2859.5 481.46l-47.74 -113.35 -23.61 0 0 113.35 -77.42 0 0 -284.59 114.1 0c34.67,0 61.32,7.24 80.41,21.31 19.11,14.47 28.65,35.77 28.65,64.31 0,10.45 -1.5,19.7 -4.51,28.14 -3.03,8.44 -7.04,15.27 -11.57,21.3 -5.03,6.03 -10.55,10.85 -16.58,14.47 -6.04,3.62 -12.07,6.43 -17.59,8.04l60.8 127.02 -84.94 0zm-5.02 -195.35c0,-7.24 -1,-13.27 -3.52,-17.69 -2.51,-4.42 -6.02,-8.04 -10.05,-10.85 -4.01,-2.82 -8.54,-4.42 -13.07,-5.63 -5.02,-0.8 -10.05,-1.21 -14.57,-1.21l-25.12 0 0 71.96 23.61 0c11.56,0 21.61,-2.82 30.16,-8.85 8.54,-5.62 12.56,-14.87 12.56,-27.73z"/>
   <polygon id="_10" fill="white" fill-rule="nonzero" points="2982.64,481.46 2982.64,196.87 3063.57,196.87 3063.57,481.46 "/>
   <path id="_11" fill="white" fill-rule="nonzero" d="M3385.73 338.36c0,22.51 -3.01,43.01 -9.54,61.5 -6.54,18.89 -15.59,34.57 -27.15,47.84 -11.56,13.26 -26.13,23.31 -42.72,30.54 -17.08,7.24 -36.19,10.86 -57.29,10.86 -21.11,0 -40.22,-3.62 -56.8,-10.86 -17.09,-7.23 -31.67,-17.28 -43.22,-30.54 -11.57,-13.27 -20.61,-28.95 -27.15,-47.84 -6.53,-18.49 -9.54,-38.99 -9.54,-61.5 0,-22.51 3.01,-43.01 9.54,-61.5 6.04,-18.09 15.08,-33.76 26.65,-47.03 11.55,-12.86 26.13,-22.91 43.22,-30.14 16.58,-6.84 35.69,-10.45 57.3,-10.45 21.1,0 40.21,3.61 57.29,10.45 16.59,7.23 31.16,17.28 42.72,30.14 11.56,13.27 20.61,28.94 27.15,47.03 6.53,18.49 9.54,38.99 9.54,61.5zm-82.42 0c0,-12.46 -1.01,-23.71 -3.52,-34.57 -2.51,-10.45 -5.53,-19.69 -10.05,-27.33 -4.53,-7.64 -10.55,-14.07 -17.09,-18.49 -6.53,-4.42 -14.57,-6.43 -23.62,-6.43 -9.06,0 -17.1,2.01 -23.62,6.43 -7.04,4.42 -12.57,10.85 -17.1,18.49 -4.52,7.64 -8.04,16.88 -10.05,27.33 -2.51,10.86 -3.51,22.11 -3.51,34.57 0,12.46 1,23.72 3.51,34.57 2.01,10.85 5.53,20.1 10.05,27.74 4.53,7.63 10.06,14.06 17.1,18.49 6.52,4.42 14.56,6.83 23.62,6.83 9.05,0 17.09,-2.41 23.62,-6.83 6.54,-4.43 12.56,-10.86 17.09,-18.49 4.52,-7.64 7.54,-16.89 10.05,-27.74 2.51,-10.85 3.52,-22.11 3.52,-34.57z"/>
  </g>
  <rect fill="white" y="-56.22" width="3545.42" height="56.22"/>
 </g>
</svg>
