<?xml version="1.0" encoding="UTF-8"?>
<!DOCTYPE svg PUBLIC "-//W3C//DTD SVG 1.1//EN" "http://www.w3.org/Graphics/SVG/1.1/DTD/svg11.dtd">
<!-- Creator: CorelDRAW (Versão de avaliação) -->
<svg xmlns="http://www.w3.org/2000/svg" xml:space="preserve" width="5.9266mm" height="5.9266mm" version="1.1" shape-rendering="geometricPrecision" text-rendering="geometricPrecision" image-rendering="optimizeQuality" fill-rule="evenodd" clip-rule="evenodd"
viewBox="0 0 592.66 592.66"
 xmlns:xlink="http://www.w3.org/1999/xlink"
 xmlns:xodm="http://www.corel.com/coreldraw/odm/2003">
 <g id="Camada_x0020_1">
  <metadata id="CorelCorpID_0Corel-Layer"/>
  <g id="_105553155169632">
   <path fill="#5181A5" d="M73.38 59.3l428.77 0c31.05,0 56.45,25.41 56.45,56.45l0 218.51 0 37.97 0 10.04 0 47.07c-3.3,-5.12 -6.82,-10.1 -10.55,-14.93 -20.48,-26.48 -47.21,-48.12 -80.11,-62.27 -29.36,-12.63 -48.3,-15.47 -74.38,-18.22 -1.07,-11.49 -2.41,-27.07 -3.1,-35.01l0 -0.07 -0.3 -3.52c-0.15,-1.74 -0.17,-2.14 -0.19,-2.58 -0.35,-7.79 -0.85,-18.85 -7.55,-26.05l-6.24 -6.72 -9.05 0.76c-8.79,0.75 -11.95,4.02 -15.7,7.88 -0.08,0.09 -0.16,0.17 -0.3,0.3 -4.82,4.49 0.24,-0.16 -1.38,1.33 -1.47,1.35 -2.85,2.61 -3.06,2.81l-88.84 86.4c-2.67,2.55 -5.46,5.27 -8.35,8.1 -2.61,2.56 -5.28,5.2 -7.99,7.88l-16.04 15.68 -15.54 15.18 113.37 86.76 -96.32 0 -37.46 0 -25.97 0 -84.26 0 -5.91 0c-0.48,0 -0.95,0 -1.43,-0.02l-0.05 0c-0.46,-0.01 -0.93,-0.03 -1.38,-0.05l-0.04 0 0 0 -0.03 0c-0.46,-0.03 -0.92,-0.06 -1.37,-0.09l-0.05 -0.01c-0.45,-0.03 -0.9,-0.07 -1.34,-0.12l-0.13 -0.01c-0.43,-0.04 -0.86,-0.09 -1.28,-0.15l-0.13 -0.01c-0.42,-0.06 -0.83,-0.12 -1.24,-0.18l-0.2 -0.03c-0.39,-0.06 -0.78,-0.13 -1.17,-0.19l-0.23 -0.05c-0.38,-0.07 -0.76,-0.14 -1.14,-0.22l-0.27 -0.05c-0.36,-0.08 -0.72,-0.16 -1.08,-0.24l-0.3 -0.07c-0.33,-0.08 -0.67,-0.16 -1,-0.24l-0.42 -0.11c-0.29,-0.08 -0.57,-0.15 -0.86,-0.23l-0.53 -0.16c-0.27,-0.07 -0.53,-0.15 -0.8,-0.24l-0.54 -0.17c-0.25,-0.07 -0.49,-0.15 -0.73,-0.23 -0.21,-0.07 -0.42,-0.15 -0.63,-0.22 -0.23,-0.08 -0.45,-0.15 -0.67,-0.23 -15.46,-5.59 -27.85,-17.76 -33.71,-33.09l-0.02 -0.06c-0.15,-0.39 -0.3,-0.79 -0.44,-1.19l-0.03 -0.09c-0.14,-0.39 -0.28,-0.78 -0.41,-1.18l-0.01 -0.03 -0.1 -0.31 0 -0.02c-0.1,-0.28 -0.19,-0.57 -0.27,-0.86l-0.15 -0.49c-0.08,-0.26 -0.15,-0.51 -0.22,-0.77 -0.06,-0.22 -0.12,-0.43 -0.18,-0.65 -0.05,-0.2 -0.1,-0.4 -0.15,-0.61 -0.07,-0.27 -0.14,-0.55 -0.21,-0.82l-0.11 -0.5c-0.07,-0.3 -0.14,-0.6 -0.2,-0.9l-0.08 -0.41c-0.07,-0.34 -0.14,-0.68 -0.2,-1.02l-0.06 -0.32c-0.07,-0.37 -0.13,-0.75 -0.19,-1.14l-0.03 -0.21c-0.06,-0.4 -0.12,-0.8 -0.17,-1.2l-0.03 -0.19c-0.05,-0.41 -0.09,-0.82 -0.14,-1.23l-0.01 -0.17c-0.05,-0.43 -0.09,-0.87 -0.12,-1.31l-0.01 -0.06c-0.03,-0.45 -0.06,-0.9 -0.08,-1.36l-0.01 -0.08c-0.02,-0.46 -0.04,-0.92 -0.05,-1.38l0 -0.04c-0.01,-0.48 -0.02,-0.96 -0.02,-1.44l0 -0.23 0 -54.1 0 -10.04 0 -37.97 0 -218.51c0,-31.04 25.4,-56.45 56.45,-56.45zm438.86 432.84l-0.02 0 -0.23 0.05c-0.39,0.06 -0.78,0.13 -1.17,0.19l-0.2 0.03c-0.41,0.06 -0.82,0.12 -1.24,0.18l-0.13 0.01c-0.42,0.06 -0.85,0.11 -1.28,0.15l-0.13 0.01c-0.44,0.05 -0.89,0.09 -1.34,0.12l-0.05 0.01c-0.45,0.03 -0.91,0.06 -1.37,0.09l-0.03 0 0 0 -0.04 0c-0.45,0.02 -0.91,0.04 -1.38,0.05l-0.05 0c-0.48,0.01 -0.95,0.02 -1.43,0.02l-5.9 0 -84.27 0 -12.56 0c-0.1,-1.11 -0.15,-1.56 -0.17,-2l-1.83 -38.48 -0.01 0c-0.06,-1.48 -0.12,-2.57 -0.18,-3.51 3.61,-0.37 6.96,-0.55 9.31,-0.56 4.44,-0.03 9.21,0.25 14.23,0.81 4.89,0.54 9.96,1.4 15.15,2.53 18.53,4.06 34.73,11.08 49.47,20.25 9.42,5.86 18.31,12.61 26.85,20.05zm-244.56 -89.81l-0.51 0.49 87.69 67.11c4.35,3.33 2.31,1.75 3.06,2.33 0.91,0.71 1.91,1.53 2.98,2.43l-0.97 -20.36 0 -0.14 -0.31 -4.39c-0.44,-6.18 -1,-14.07 -0.12,-19.05l1.62 -9.24 8.45 -4.28c4.45,-2.25 10.62,-3.77 16.94,-4.71 6.71,-0.99 14.61,-1.48 19.88,-1.51 6.33,-0.03 12.51,0.3 18.5,0.96 6.44,0.72 12.78,1.77 18.97,3.12 23.03,5.05 43.12,13.74 61.38,25.1 10.12,6.3 19.64,13.4 28.76,21.15 -4.6,-8.42 -9.81,-16.45 -15.64,-23.99 -16.64,-21.52 -38.41,-39.12 -65.27,-50.67 -27.32,-11.75 -44.71,-13.52 -71.71,-16.28l0 -0.01 -6.74 -0.68 -14 -1.46 -2.54 -13.9c-0.81,-4.44 -2.44,-21.88 -3.73,-36.42l-70.51 68.56c-2.87,2.77 -5.53,5.34 -8.04,7.81 -2.75,2.69 -5.39,5.3 -8,7.89l-0.14 0.14z"/>
   <polygon fill="white" points="71.1,113.89 287.23,248.39 504.21,113.47 504.63,168.03 287.65,303.37 69.83,167.6 "/>
   <path fill="#FF1F1F" d="M238.55 404.56l16.04 -15.68c5.37,-5.32 10.72,-10.59 16.26,-15.91l88.92 -86.47c1.36,-1.31 2.63,-2.43 4.15,-3.85 1.61,-1.49 2.47,-2.98 4.76,-3.17 2.55,2.74 2.37,13.25 2.73,17.46 0.76,8.68 4.15,48.67 5.14,54.1 32.81,3.41 51.84,4.56 83.96,18.37 61.86,26.6 99.6,82.21 112.64,145.66 0.73,3.52 2.88,14.91 2.55,18.28 -2.49,-0.79 -3.23,-3.17 -4.63,-4.93 -11.17,-13.93 -16,-20.99 -30.16,-35.13 -28.45,-28.41 -59.46,-50.72 -101.02,-59.82 -11.22,-2.45 -22.49,-3.78 -33.43,-3.71 -7.67,0.04 -22.75,1.34 -28.44,4.23 -0.68,3.83 0.47,14.9 0.66,19.46l1.82 38.49c0.25,5.08 1.69,15 -0.78,18.77 -3.89,-0.38 -31.14,-21.94 -36.26,-25.86l-104.91 -80.29z"/>
  </g>
 </g>
</svg>
