<?xml version="1.0" encoding="UTF-8"?>
<!DOCTYPE svg PUBLIC "-//W3C//DTD SVG 1.1//EN" "http://www.w3.org/Graphics/SVG/1.1/DTD/svg11.dtd">
<!-- Creator: CorelDRAW (Versão de avaliação) -->
<svg xmlns="http://www.w3.org/2000/svg" xml:space="preserve" width="5.9266mm" height="5.9266mm" version="1.1" shape-rendering="geometricPrecision" text-rendering="geometricPrecision" image-rendering="optimizeQuality" fill-rule="evenodd" clip-rule="evenodd"
viewBox="0 0 592.66 592.66"
 xmlns:xlink="http://www.w3.org/1999/xlink"
 xmlns:xodm="http://www.corel.com/coreldraw/odm/2003">
 <g id="Camada_x0020_1">
  <metadata id="CorelCorpID_0Corel-Layer"/>
  <path fill="#5181A5" d="M249.45 405.43c-0.83,2.11 -1.67,3.92 -2.39,4.65 -0.03,2.16 -2.32,8.99 -3.5,10.43l-9.62 27.08c-0.5,0.91 -0.43,0.68 -0.95,1.22 0.08,1.85 -2.35,9.23 -3.43,10.23 -0.42,1.83 -7.93,24.63 -10.07,26.97 0.02,3.47 -2.63,8.44 -3.86,12.36l-5.54 -1.54c-2.75,-0.55 -12.54,-3.26 -14.83,-5.26 -3.43,0 -9.77,-3.33 -12.96,-4.75l-11.28 -5.62c-7.24,-2.36 -29.86,-17.18 -37.34,-23.42l-1.98 -2.24c-1.67,-0.34 -3.77,-2.47 -5.06,-3.6 -1.39,-1.22 -3.66,-2.78 -4.27,-4.29 -2.61,-1.15 -1.68,-1.06 -4.47,-3.66 -1.81,-1.68 -2.78,-2 -3.78,-4.54 1.54,-0.9 2.59,-1.82 4.05,-3 2.02,-1.63 1.8,-2.19 4.25,-3.2 0.85,-1.88 5.1,-4.9 6.72,-6.4l2.46 -1.61 39.04 -34.56c6.71,-6 12.85,-11.34 19.52,-17.09 2.65,-2.29 16.96,-15.61 19.66,-16.67l2.16 -2.06 -24.43 -32.96 80.88 0c-3.63,-0.46 -7.21,-1.33 -10.4,-2.59 -10.71,-4.22 -19.43,-13.18 -23.82,-23.79 -1.71,-4.15 -2.71,-9.68 -2.91,-14.35 -0.14,-3.28 -0.21,-3.7 0.76,-5.36 -1.22,-4.82 2.01,-11.34 3.86,-15.08 2.22,-4.5 4.74,-7.59 7.88,-10.73 3.82,-3.82 16.59,-13.46 25.27,-11.71 1.65,-1.01 3.3,-0.89 5.9,-0.78 22.72,0.93 40.09,18.39 41.06,41.06l-0.76 5.34c2.09,8.45 -8.05,22.16 -11.73,25.83 -3.86,3.84 -16.68,13.43 -25.29,11.7 -0.31,0.19 -0.62,0.34 -0.93,0.46l43.59 0 0 -121.18c-2.88,-1.51 -6.19,-3.55 -7.83,-4.49l1.95 -6.73c0.05,-0.11 0.24,-0.18 0.28,-0.43 0.05,-0.26 0.2,-0.3 0.31,-0.43 -0.21,-2.75 1.83,-9.51 2.76,-11.21 0.72,-4.48 2.65,-10.39 3.83,-14.65 0.69,-2.48 1.34,-4.77 1.99,-7.06 0.38,-1.34 0.6,-2.3 0.93,-3.52l1.46 -3.21c-0.08,-2.38 1.27,-7.72 2.36,-9.76 0.43,-2.38 3,-13.35 4.64,-15.49 -0.18,-2.26 5.1,-21.53 6.11,-23.24 0.42,-2.69 1.17,-4.94 1.91,-7.65 0.33,-1.22 0.58,-2.19 0.95,-3.52 0.55,-1.92 0.26,-1.91 1.41,-3.19 -0.05,-4.11 3.78,-14.63 4.89,-19.4 5.17,0.75 19.06,7.38 25,10.21l2.63 1.54c5.65,1.99 35.45,20.2 39.08,25.75 0.9,0.22 0.63,0.08 1.56,0.7 0.46,0.3 0.7,0.59 1.04,0.87l6.77 6.34c2.13,0.93 2.83,1.29 3.92,3.75 1.98,0.83 5.35,4.56 6.99,6.29 1.21,1.29 1.21,1.14 1.78,2.48 2.14,0.96 6.57,5.88 7.6,8.14l-6.76 6.63c-0.23,0.77 -0.02,0.46 -0.73,1.4l-8.85 8.24c-1.05,1.97 -1.48,2.43 -3.44,3.5 -0.69,1.67 -8.19,9.5 -9.83,10.11 -1.13,2.38 0.09,1.13 -2.24,2.3 -0.64,1.94 -8.72,10.16 -10.35,10.7l-2.65 2.49 -8.49 9.27c-1.12,0.95 -0.6,0.52 -1.42,0.86 -1,2.13 -0.75,1.89 -2.85,2.91 -0.17,0.52 -0.52,1.07 -0.95,1.63l128.73 0 -0.86 -2.28c-1.49,-4.01 -4.42,-10.07 -5.28,-13.83 -1.64,-1.68 -4.51,-9.22 -6.01,-12.15 -1.36,-2.66 -5.55,-9.62 -5.83,-11.9 -1.22,-0.95 -0.66,-0.3 -1.69,-1.8l-16.57 -25.78 0.2 0.2c-2.22,-1.49 -9.66,-11.36 -10.52,-13.04 -0.99,-0.2 -0.46,0.39 -1.51,-0.98 -0.73,-0.97 -0.46,-0.77 -0.68,-1.65l-3.23 -2.83c-5.09,-5.1 -7.67,-8.6 -14.03,-14.23 -1.27,-1.13 -1.75,-1.55 -2.98,-2.79l-2.52 -2.9c-1.21,-0.31 -0.25,0.63 -1.97,-0.95 -1.1,-1.02 -0.43,-0.08 -0.65,-1.26 -1.68,-0.85 -11.58,-8.35 -13.04,-10.51l0.19 0.21 -13.85 -9.27c-2.39,-1.53 -4.45,-2.87 -7.06,-4.49 -2.83,-1.75 -5.15,-2.57 -6.65,-4.52 -2.19,-0.26 -9.78,-4.71 -12.33,-6.05 -2.8,-1.47 -10.01,-4.13 -11.73,-5.8l-27.61 -10.49c-2.22,0.23 -9.01,-1.68 -10.99,-2.69 -12.5,-2.33 -23.15,-5.04 -36.7,-6.52 -13.71,-1.51 -27.02,-1.6 -41.1,-1.23 -8.66,1.05 -17.31,1.37 -25.99,2.67 -5.45,0.81 -20.87,4.69 -24.44,4.48 -1.22,1.03 -1.22,0.89 -3.22,1.43 -1.29,0.35 -2.34,0.57 -3.48,0.9 -2.58,0.72 -4.44,1.49 -7.06,1.88 -1.09,0.79 -9.86,3.52 -11.86,4.28 -3.73,1.43 -8.2,3.93 -11.85,4.21 -1.53,1.94 -10.84,5.45 -13.66,6.91 -3.95,2.04 -10.21,5.91 -13.92,7.1l-24.02 15.64c-0.75,1.04 0.39,0.19 -1.39,1.57 -1.21,0.94 0.42,-0.07 -1.56,0.76 -1.07,1.8 -8.02,7.4 -10.01,7.88l-1.88 2.29c-0.84,0.82 -1.15,1.02 -2.06,1.77l-11.97 11.14c-2.71,2.71 -4.78,5.4 -7.42,8 -1.79,1.76 -2.29,2.23 -3.72,3.98l-4.07 3.92c-0.41,1.67 -6.21,9.01 -7.87,10.02 -0.89,2.09 0.45,0.08 -1.09,1.97 -0.67,0.81 -0.4,0.37 -1.25,0.97l-1.71 3.09c-0.89,1.19 -1.16,1.63 -2.11,3.02l-11.02 17.17c-0.52,0.68 -0.62,0.62 -0.79,0.75l-13.77 26.97c0.13,2.72 -3.22,9.21 -4.45,12.46 -0.89,2.32 -3.53,10.8 -4.29,11.85l-3.68 13.45c-1.72,8.52 -3.7,15.99 -5,24.72 -1.29,8.66 -1.83,18.08 -2.68,26.25 -0.4,14.09 -0.2,27.14 1.24,40.8 1.44,13.55 4.21,24.22 6.52,36.77 1.05,2.04 2.94,8.8 2.7,10.98l10.49 27.63c1.63,1.65 4.53,9.23 6.02,12.15 1.39,2.72 5.56,9.64 5.83,11.9l18.27 27.58 -0.21 -0.21 1.95 1.71c0.57,0.64 0.69,0.89 1.1,1.45 2.36,3.23 5.87,6.72 7.48,9.89 1.44,0.25 -0.02,-0.64 1.51,0.97 5.88,6.14 9.69,11.27 17.26,18.11 1.33,1.2 2.1,1.82 3.35,3.07l2.83 3.23c1.46,0.36 -0.05,-0.92 1.95,0.96 1.64,1.55 0.5,0.58 0.87,1.44 2.68,1.14 7.01,5.27 10.06,7.53l2.46 2.33c0.06,-0.12 0.23,0.3 0.33,0.45l-0.21 -0.21 24.54 15.92c0.14,0.09 1.54,0.9 1.61,0.96 2.04,1.49 0.54,0.27 1.43,1.39 2.2,0.25 9.81,4.73 12.33,6.05 2.38,1.25 10.53,4.21 11.46,5.67l27.92 10.62c2.27,-0.23 7.83,1.4 9.97,2.49 6.84,1.14 13.78,3.09 21.32,4.43 7.38,1.3 14.35,2.18 22.01,2.85 17.13,1.49 31.61,0.75 48.49,-0.28 6.34,-1 12.82,-1.63 19.21,-2.71 6.16,-1.03 12.29,-2.67 18.49,-4.01l2.61 -0.71 -90.85 -122.59zm41.17 -351.49c2.24,-0.69 6.4,-0.14 8.47,0.3l12.73 1.77c-0.11,2.47 0,5.75 -1.06,7.6 0.75,2.95 0.05,7.02 -0.36,10.13l-1.07 14.12 -0.99 11.56 -1.04 14.13 -6.24 76.96 -15.2 -3.06c-0.89,-7.62 -2.02,-14.97 -3,-22.66 -0.71,-5.54 -3.03,-17.89 -2.51,-22.61 -1.73,-2.31 -1.69,-10.56 -2.53,-14.15l-0.67 -10.31c-1.27,-1.63 -8.34,-58.09 -8.85,-64.88l21.82 0.86c0.1,-0.15 0.34,0.15 0.5,0.24zm127.9 437.87l6.7 -4.48c1.41,-0.74 -0.43,-0.07 1.22,-0.4 0.88,-1.26 -0.56,-0.06 1.38,-1.59 1.17,-0.92 -0.33,0.04 1.55,-0.76 0.68,-1.17 7.36,-6.28 12.53,-10.63l49.92 -67.37 -50.23 0 0 -129.05 -36 0 0 129.05 -50.23 0 63.16 85.23zm108.58 -169.91l0.43 -2.73c1.29,-8.8 1.65,-17.37 2.68,-26.06 0.41,-14.04 0.31,-27.34 -1.22,-41.16 -0.68,-6.2 -1.66,-11.81 -2.72,-17.28l0 87.23 0.83 0z"/>
  <path fill="#4BAE4F" fill-rule="nonzero" d="M363.25 235.19l0 129.05 -91.8 0 152.14 205.29 152.14 -205.29 -91.8 0 0 -129.05 -120.68 0zm0 64.52m-45.9 64.53m30.17 102.64m152.14 0m30.17 -102.64m-45.9 -64.53m-60.34 -64.52"/>
 </g>
</svg>
