<?xml version="1.0" encoding="UTF-8"?>
<!DOCTYPE svg PUBLIC "-//W3C//DTD SVG 1.1//EN" "http://www.w3.org/Graphics/SVG/1.1/DTD/svg11.dtd">
<!-- Creator: CorelDRAW (Versão de avaliação) -->
<svg xmlns="http://www.w3.org/2000/svg" xml:space="preserve" width="5.9266mm" height="5.9266mm" version="1.1" shape-rendering="geometricPrecision" text-rendering="geometricPrecision" image-rendering="optimizeQuality" fill-rule="evenodd" clip-rule="evenodd"
viewBox="0 0 592.66 592.66"
 xmlns:xlink="http://www.w3.org/1999/xlink"
 xmlns:xodm="http://www.corel.com/coreldraw/odm/2003">
 <g id="Camada_x0020_1">
  <metadata id="CorelCorpID_0Corel-Layer"/>
  <g id="_105553276163616">
   <path fill="#5181A5" d="M36.53 369.77l-2.55 -0.06 -2.2 2.52 -1.96 0.18 -2.65 2.59 -2.58 2.39 -2.54 2.63 -0.07 2.08c0.16,3.51 0.98,2.61 -2.58,2.61l-0.16 2.04 -2.07 3.01 -0.22 4.52 -0.02 154.31 0.28 4.34 2.33 2.36 0.35 2.27 2.2 5.3 2.55 2.58 2.49 2.47 2.56 2.56 5.3 2.19 2.28 0.21 2.12 2.51 4.57 0.25 504.74 0 4.34 -0.28 2.35 -2.41 2.28 -0.28 5.3 -2.19 2.56 -2.56 2.49 -2.47 2.55 -2.58 2.2 -5.3 0.35 -2.27 2.33 -2.36 0.28 -4.34 -0.02 -154.31 -0.22 -4.52 -2.07 -3.01 -0.16 -2.04c-3.56,0 -2.74,0.9 -2.58,-2.61l-0.07 -2.08 -2.54 -2.63 -2.58 -2.39 -2.59 -2.58 -2.1 -0.18 -2.12 -2.53 -2.55 0c-4.13,0.44 -3.36,1.56 -3.36,-2.16l-3.26 0.26 -15.38 0.12 -3.65 -0.35c0,3.6 0.78,2.55 -3.16,2.21l-2.62 0 -2.1 2.55 -5.07 2.34 -2.59 2.55 -2.28 5.08 -2.5 2.77 -0.12 1.91 -2.19 3.34 0.08 4.95 -2.09 110.46c-11.82,4.83 -417.03,1.49 -417.39,0.7 -0.3,-0.65 -1.08,-0.48 -1.63,-0.7l-1.32 -3.42c-0.12,-0.61 -0.29,-1.35 -0.39,-2.07l-0.38 -104.97 0.08 -4.95 -2.19 -3.34 -0.12 -1.91 -2.5 -2.77 -2.28 -5.08 -2.59 -2.55 -5.07 -2.34 -2.1 -2.55 -2.62 0c-3.94,0.34 -3.16,1.39 -3.16,-2.21l-4.18 -0.31 -14.79 0.59 -3.32 -0.31c0,3.83 0.81,2.73 -3.36,2.22z"/>
   <path fill="#5181A5" d="M281.72 19.24l-6.81 2.68 -2.54 2.57 -2.48 2.5 -2.52 2.67 -0.19 2.02 -2.54 2.15 -0.06 2.45c0.42,4.24 1.62,3.51 -2.05,3.51l-0.18 4.32 0.19 271.91c-10.72,0 -2.52,0.7 -5.37,-3.16l-2.07 -2.94 -2.5 -2.51 -2.4 -2.59 -2.6 -2.41 -2.51 -2.51 -2.5 -2.5 -2.42 -2.57 -2.59 -2.43 -2.5 -2.51 -2.41 -2.59 -2.52 -2.49 -2.58 -2.43 -2.54 -2.45 -2.38 -2.62 -2.59 -2.43 -2.5 -2.51 -2.41 -2.59 -2.52 -2.49 -2.58 -2.43 -2.54 -2.46 -2.37 -2.63 -2.6 -2.41 -2.5 -2.51 -2.42 -2.57 -2.51 -2.51 -2.58 -2.43 -2.55 -2.45 -2.37 -2.64 -2.52 -2.49 -2.57 -2.43 -2.42 -2.56 -2.61 -2.54 -2.14 -0.16 -2.59 -2.47 -2.07 -0.14 -3.54 -2.11 -4.24 -0.1 -13.62 -0.1 -4.1 0.2 -3.68 2.01 -2.33 0.14 -2.2 2.53 -2.24 0.17 -2.54 2.54 -2.48 2.5 -2.54 2.61 -0.07 2.09 -2.63 2.22 -0.06 2.42c0.4,4.1 1.52,3.34 -2.14,3.34l-0.1 4.44 -0.1 13.65 0.26 4.44 2 3.39 0.14 2.37 2.55 2.22 0.19 1.97 2.59 2.64 2.4 2.6 2.5 2.51 2.6 2.4 2.41 2.61 2.51 2.49 2.58 2.41 2.51 2.5 2.41 2.6 2.5 2.51 2.6 2.4 2.41 2.61 2.5 2.5 2.6 2.4 2.5 2.5 2.41 2.6 2.5 2.51 2.6 2.4 2.43 2.59 2.48 2.52 2.6 2.4 2.5 2.5 2.43 2.59 2.49 2.52 2.51 2.48 2.51 2.51 2.49 2.5 2.51 2.51 2.58 2.42 2.43 2.58 2.49 2.52 2.51 2.48 2.51 2.51 2.5 2.51 2.5 2.5 2.58 2.42 2.43 2.58 2.48 2.52 2.53 2.48 2.58 2.43 2.42 2.59 2.48 2.52 2.6 2.4 2.43 2.59 2.48 2.51 2.51 2.5 2.6 2.41 2.5 2.51 2.4 2.6 2.52 2.48 2.51 2.51 2.48 2.51 2.51 2.5 2.6 2.41 2.5 2.51 2.41 2.6 2.51 2.48 2.51 2.49 2.6 2.52 2.17 0.19 2.15 2.54 2.41 0c4.25,-0.48 3.48,-1.65 3.48,2.12l4.06 0.29 14.14 0 4.06 -0.29c0,-3.77 -0.77,-2.6 3.48,-2.12l2.41 0 2.15 -2.54 2.17 -0.19 2.6 -2.52 2.51 -2.49 2.51 -2.48 2.41 -2.6 2.5 -2.51 2.6 -2.41 2.51 -2.5 2.48 -2.51 2.51 -2.51 2.52 -2.48 2.4 -2.6 2.5 -2.51 2.6 -2.41 2.51 -2.5 2.48 -2.51 2.43 -2.59 2.6 -2.4 2.48 -2.52 2.42 -2.59 2.58 -2.43 2.53 -2.48 2.48 -2.52 2.43 -2.58 2.58 -2.42 2.5 -2.5 2.5 -2.51 2.51 -2.51 2.51 -2.48 2.49 -2.52 2.43 -2.58 2.58 -2.42 2.51 -2.51 2.49 -2.5 2.51 -2.51 2.51 -2.48 2.49 -2.52 2.43 -2.59 2.5 -2.5 2.6 -2.4 2.48 -2.52 2.43 -2.59 2.6 -2.4 2.5 -2.51 2.41 -2.6 2.5 -2.5 2.6 -2.4 2.5 -2.5 2.41 -2.61 2.6 -2.4 2.5 -2.51 2.41 -2.6 2.51 -2.5 2.58 -2.41 2.51 -2.49 2.41 -2.61 2.6 -2.4 2.5 -2.51 2.4 -2.6 2.59 -2.64 0.19 -1.97 2.55 -2.22 0.14 -2.37 2 -3.39 0.26 -4.44 -0.1 -13.65 -0.1 -4.44c-3.66,0 -2.54,0.76 -2.14,-3.34l-0.06 -2.42 -2.53 -2.22 -0.19 -2.03 -2.53 -2.67 -2.47 -2.5 -2.54 -2.54 -2.23 -0.16 -2.2 -2.54 -2.39 -0.07c-4.22,0.41 -3.47,1.59 -3.47,-2.1l-4.26 -0.18 -13.62 0.1 -4.24 0.1 -3.54 2.11 -2.07 0.14 -2.59 2.47 -2.14 0.16 -2.61 2.54 -2.42 2.56 -2.57 2.43 -2.52 2.49 -2.37 2.64 -2.55 2.45 -2.58 2.43 -2.51 2.51 -2.42 2.57 -2.5 2.51 -2.6 2.41 -2.37 2.63 -2.54 2.46 -2.58 2.43 -2.52 2.49 -2.41 2.59 -2.5 2.51 -2.59 2.43 -2.38 2.62 -2.54 2.45 -2.58 2.43 -2.52 2.49 -2.41 2.59 -2.5 2.51 -2.59 2.43 -2.42 2.57 -2.5 2.5 -2.51 2.51 -2.6 2.41 -2.4 2.59 -2.5 2.51 -2.07 2.94c-4.23,3.76 6.34,3.16 -5.16,3.16l-0.02 -271.91 -0.18 -4.32c-3.67,0 -2.47,0.73 -2.05,-3.51l-0.06 -2.45 -2.54 -2.15 -0.19 -2.02 -2.52 -2.67 -2.48 -2.5 -2.54 -2.57 -6.81 -2.68c-3.99,0.34 -3.22,1.41 -3.22,-2.2l-3.22 0.18 -16.34 0 -3.22 -0.18c0,3.61 0.77,2.54 -3.22,2.2z"/>
  </g>
 </g>
</svg>
