<svg id="Camada_6" data-name="Camada 6" xmlns="http://www.w3.org/2000/svg" xmlns:xlink="http://www.w3.org/1999/xlink" viewBox="0 0 19.95 19.95"><defs><style>.cls-1{fill:#fff;}.cls-2{fill:#1d71b8;}</style><symbol id="Seta_para_baixo_-_laranja" data-name="Seta para baixo - laranja" viewBox="0 0 64 64"><path class="cls-1" d="M32,62.5A30.5,30.5,0,1,1,62.5,32,30.53,30.53,0,0,1,32,62.5Z"/><path class="cls-2" d="M32,3A29,29,0,1,1,3,32,29,29,0,0,1,32,3m0-3A32,32,0,1,0,64,32,32,32,0,0,0,32,0Z"/><polygon class="cls-2" points="32 48 48 32 40 32 40 16 24 16 24 32 16 32 32 48"/></symbol></defs><use width="64" height="64" transform="translate(0 0) scale(0.31)" xlink:href="#Seta_para_baixo_-_laranja"/></svg>