<?xml version="1.0" encoding="UTF-8"?>
<!DOCTYPE svg PUBLIC "-//W3C//DTD SVG 1.1//EN" "http://www.w3.org/Graphics/SVG/1.1/DTD/svg11.dtd">
<!-- Creator: CorelDRAW (Versão de avaliação) -->
<svg xmlns="http://www.w3.org/2000/svg" xml:space="preserve" width="5.9266mm" height="5.9266mm" version="1.1" shape-rendering="geometricPrecision" text-rendering="geometricPrecision" image-rendering="optimizeQuality" fill-rule="evenodd" clip-rule="evenodd"
viewBox="0 0 592.66 592.66"
 xmlns:xlink="http://www.w3.org/1999/xlink"
 xmlns:xodm="http://www.corel.com/coreldraw/odm/2003">
 <g id="Camada_x0020_1">
  <metadata id="CorelCorpID_0Corel-Layer"/>
  <g id="_105553210616512">
   <path fill="#5181A5" d="M305.88 302.9l0 229.25 143.28 -9.55c5.68,-0.02 6.96,-0.58 10.93,-1.02 4.23,-0.47 8.55,0.12 12.78,-0.35 4.32,-0.48 6.02,-1.1 12.16,-0.98 5.06,0.1 9.51,1.24 9.51,-3.62l0 -225.67c-22.48,0 -58.13,3.6 -82.39,4.77l-106.27 7.17z"/>
   <path fill="#5181A5" d="M98.12 516.63c0,6.02 7.21,2.63 20.63,4.45l168.03 11.07 0 -229.25c-13.26,0 -24.93,-1.91 -34.63,-2.39l-154.03 -9.55 0 225.67z"/>
   <path fill="#5181A5" stroke="#5181A5" stroke-width="7.62" stroke-miterlimit="22.9256" d="M315.43 286.18l128.78 -8.53c13.25,-1.48 29.81,-1.55 43.17,-3.41 7.41,-1.03 3.42,-1.76 12.24,-10.44 11.82,-11.63 37.09,-43.12 48.93,-54.95l27.18 -31.33 -64.48 3.58c-5.28,0.27 -4.96,1.09 -10.71,1.23l-43.02 2.36c-5.28,0.26 -4.96,1.08 -10.71,1.22 -8.8,0.22 -13.37,1.18 -21.54,1.15 -30.45,-0.08 -23.98,3.16 -33.7,12.87 -4.36,4.36 -6.46,7.73 -10.76,11.93l-22.11 24.46c-2.4,2.58 -2.51,3.41 -4.77,5.97 -6.57,7.45 -37.21,39.06 -38.5,43.89z"/>
   <path fill="#5181A5" d="M277.23 286.18c-1.51,-5.63 -6.78,-7.96 -10.25,-12.44l-15.74 -17.69c-2.83,-2.82 -3,-3.65 -5.41,-6.53 -2.03,-2.42 -3.75,-3.73 -5.94,-6 -9.25,-9.57 -27.21,-32.26 -37.59,-42.41 -2.91,-2.83 -8.85,-11.17 -11.63,-12.25l-118.75 -7.82c-17.56,-1.4 -36.45,-3.52 -54.99,-3.52 1.5,5.64 6.78,7.96 10.24,12.45l59.3 66.07c3.93,4.46 12.43,16.92 17.74,18.08 12.18,2.65 28.99,0.99 42.36,3.01l119.91 7.86c4.87,0.23 5.53,1.19 10.75,1.19z"/>
   <path fill="#55BA52" d="M250.96 130.96l-33.44 0c1.45,5.41 33.97,36.35 38.5,41.5 2.09,2.37 2.11,2.98 4.2,5.35 1.81,2.06 3.38,3.41 5.36,5.39 3.68,3.66 6.48,6.49 10.16,10.13l19.4 21.21c4.75,-3.19 33.47,-35.27 39.1,-40.9l29.65 -31.25c3.15,-4.08 7.51,-6.4 8.86,-11.43l-35.82 0 0 -70.45 -85.97 0 0 70.45z"/>
  </g>
 </g>
</svg>
