<?xml version="1.0" encoding="UTF-8"?>
<!DOCTYPE svg PUBLIC "-//W3C//DTD SVG 1.1//EN" "http://www.w3.org/Graphics/SVG/1.1/DTD/svg11.dtd">
<!-- Creator: CorelDRAW (Versão de avaliação) -->
<svg xmlns="http://www.w3.org/2000/svg" xml:space="preserve" width="5.9266mm" height="5.9266mm" version="1.1" shape-rendering="geometricPrecision" text-rendering="geometricPrecision" image-rendering="optimizeQuality" fill-rule="evenodd" clip-rule="evenodd"
viewBox="0 0 592.66 592.66"
 xmlns:xlink="http://www.w3.org/1999/xlink"
 xmlns:xodm="http://www.corel.com/coreldraw/odm/2003">
 <g id="Camada_x0020_1">
  <metadata id="CorelCorpID_0Corel-Layer"/>
  <g id="_105553255853024">
   <g>
    <path fill="#5181A5" d="M338.33 432.87l98.79 0 0 52.07 107.57 -79.72 -107.57 -79.73 0 52.07 -98.79 0 0 55.31zm-265.78 -361.9l422.45 0c30.59,0 55.62,25.03 55.62,55.62l0 237.01 -150.58 -111.59 0 88.48 -98.78 0 0 129.46 98.78 0 0 28.38 -327.49 0c-30.59,0 -55.62,-25.03 -55.62,-55.62l0 -316.12c0,-30.59 25.03,-55.62 55.62,-55.62zm477.91 375.98c-2.18,28.63 -26.29,51.38 -55.46,51.38l-13.87 0 69.33 -51.38z"/>
    <polygon fill="white" points="70.3,124.75 283.25,257.27 497.03,124.34 497.45,178.1 283.67,311.45 69.05,177.68 "/>
   </g>
   <path fill="#FF1F1F" fill-rule="nonzero" d="M319.79 451.41l98.79 0 0 70.28 157.15 -116.47 -157.15 -116.47 0 70.28 -98.79 0 0 92.38zm49.4 0m49.39 35.14m78.57 -23.1m0 -116.47m-78.57 -23.09m-49.39 35.14m-49.4 46.19"/>
  </g>
 </g>
</svg>
