<?xml version="1.0" encoding="UTF-8"?>
<!DOCTYPE svg PUBLIC "-//W3C//DTD SVG 1.1//EN" "http://www.w3.org/Graphics/SVG/1.1/DTD/svg11.dtd">
<!-- Creator: CorelDRAW (Versão de avaliação) -->
<svg xmlns="http://www.w3.org/2000/svg" xml:space="preserve" width="5.9266mm" height="5.9266mm" version="1.1" shape-rendering="geometricPrecision" text-rendering="geometricPrecision" image-rendering="optimizeQuality" fill-rule="evenodd" clip-rule="evenodd"
viewBox="0 0 592.66 592.66"
 xmlns:xlink="http://www.w3.org/1999/xlink"
 xmlns:xodm="http://www.corel.com/coreldraw/odm/2003">
 <g id="Camada_x0020_1">
  <metadata id="CorelCorpID_0Corel-Layer"/>
  <g id="_105553256492992">
   <g>
    <path fill="#5181A5" d="M73.71 60.37l431.34 0c31.23,0 56.78,25.55 56.78,56.78l0 263.84 -105.02 -141.7 -156.42 211.07 90.33 0 0 46.34 -317.01 0c-31.23,0 -56.78,-25.55 -56.78,-56.78l0 -322.77c0,-31.23 25.55,-56.78 56.78,-56.78zm487.15 389.99c-3.82,20.37 -18.62,36.99 -37.96,43.45l0 -43.45 37.96 0zm-75.81 46.34l-56.47 0 0 -84.2 -53.17 0 81.4 -109.83 81.41 109.83 -53.17 0 0 84.2z"/>
    <polygon fill="white" points="71.42,115.28 288.84,250.58 507.12,114.85 507.54,169.74 289.27,305.89 70.15,169.32 "/>
   </g>
   <path fill="#4BAE4F" fill-rule="nonzero" d="M503.98 532.29l0 -100.86 71.75 0 -118.92 -160.45 -118.91 160.45 71.75 0 0 100.86 94.33 0zm0 -50.43m35.87 -50.43m-23.58 -80.23m-118.91 0m-23.58 80.23m35.87 50.43m47.16 50.43"/>
  </g>
 </g>
</svg>
