<?xml version="1.0" encoding="UTF-8"?>
<!DOCTYPE svg PUBLIC "-//W3C//DTD SVG 1.1//EN" "http://www.w3.org/Graphics/SVG/1.1/DTD/svg11.dtd">
<!-- Creator: CorelDRAW (Versão de avaliação) -->
<svg xmlns="http://www.w3.org/2000/svg" xml:space="preserve" width="5.9266mm" height="5.9266mm" version="1.1" shape-rendering="geometricPrecision" text-rendering="geometricPrecision" image-rendering="optimizeQuality" fill-rule="evenodd" clip-rule="evenodd"
viewBox="0 0 592.66 592.66"
 xmlns:xlink="http://www.w3.org/1999/xlink"
 xmlns:xodm="http://www.corel.com/coreldraw/odm/2003">
 <g id="Camada_x0020_1">
  <metadata id="CorelCorpID_0Corel-Layer"/>
  <g id="_105553254997952">
   <g>
    <path fill="#5181A5" d="M72.1 67.71l419.12 0c30.35,0 55.18,24.83 55.18,55.18l0 213.59c-1.59,-0.2 -3.15,-0.39 -4.66,-0.58 -2.95,-0.36 -5.68,-0.69 -7.81,-1.06 -8.92,-1.57 -16.73,-2.67 -22.71,-3.51 -6.09,-0.86 -9.46,-1.33 -9.81,-1.5 -2.18,-1.05 1.62,-0.13 0.39,-2.77l-2.42 -5.17c-3.38,-7.02 -6.95,-13.67 -10.39,-20.07 -4.03,-7.49 3.21,6.1 -2.33,-4.28 -0.12,-0.2 -1.32,-2.73 -2.63,-5.47 -2.82,-5.91 -6.18,-12.93 -11.01,-19.63 -11.72,-16.24 -27.28,-25.86 -49.06,-10.14l-0.07 0c-6.99,5.05 -17.71,26.31 -27.45,45.65 -6.33,12.54 -10.54,22.74 -11.34,23.4 -1.76,1.48 -28.45,3.43 -43.22,5.83 -4.95,0.8 -7.29,1.16 -8.04,1.29 -3.82,0.66 -2.45,0.44 -2.85,0.5 -16.25,2.67 -29.6,4.86 -35.16,25.52 -5.45,20.24 5.67,30.72 13.96,38.53 0.74,0.69 1.43,1.34 1.78,1.72l5.06 5.32c3.74,3.93 7.32,7.69 11.93,12.58 7.7,8.18 13.77,13.79 18.02,17.73 2.38,2.2 3.18,2.43 3.47,2.95 1.44,2.64 -1.61,-1.6 -2,0.86 -0.48,3.06 -0.88,5.5 -0.96,6.03 -0.5,3.5 -0.84,5.56 -1.24,8.07 -1.42,8.89 -3.46,21.56 -4.77,33.42l-268.98 0c-30.35,0 -55.18,-24.83 -55.18,-55.18l0 -313.63c0,-30.35 24.83,-55.18 55.18,-55.18zm474.3 305.88l0 9.82c-4.55,3.93 -13.18,13.2 -21.35,21.96 -5.48,5.88 -10.74,11.53 -13.63,14.39 -10.98,10.88 -10.44,13.69 -8.02,26.03 0.29,1.51 0.56,2.77 0.6,3.03l2.31 16.17c0.47,3.13 1.37,8.06 2.31,13.2 0.61,3.3 1.23,6.71 1.8,10.04 -5.98,2.24 -12.45,3.47 -19.2,3.47l-5.77 0 -23.47 -11.51 0.02 -0.03 -2.06 -1.12 -0.07 0c-7.3,-4 -10.61,-5.81 -18.58,-4.78 -5.19,0.67 -8.17,2.22 -13.63,5.07 -1.93,1 -4.33,2.25 -7.26,3.68 -5.77,2.81 -11.54,5.74 -17.32,8.69l-25.38 0c1.4,-9.18 3.15,-20.09 4.36,-27.67l1.39 -8.65c0.71,-4.96 0.77,-5.31 0.81,-5.6 1.75,-11.05 2.49,-15.73 -2.02,-23.99 -2.55,-4.65 -5.57,-7.44 -10.81,-12.29 -3.46,-3.21 -8.41,-7.79 -16.15,-16.01 -3.74,-3.97 -7.83,-8.27 -12.07,-12.72l-5.05 -5.32c-1.1,-1.16 -2.13,-2.13 -3.22,-3.16 -1.45,-1.36 -3.85,-1.45 -3.62,-2.32 0.6,-2.22 2.18,1.77 5.56,1.21 2.36,-0.39 1.34,-0.19 3.14,-0.5 3.57,-0.62 5.35,-0.91 7.75,-1.3 18.06,-2.93 55.02,-8.93 60.9,-13.87 4.95,-4.14 12.41,-18.93 20.53,-35.04 5.9,-11.7 12.05,-24.15 14.78,-29.6 2.35,3.56 4.78,8.65 6.86,13.01 0.9,1.88 1.72,3.6 3.49,6.91l2.35 4.41 -0.02 0.01c-0.51,-0.95 -0.89,-1.66 0,0 3.31,6.17 6.76,12.58 9.68,18.63 1.76,3.65 2.04,4.24 2.27,4.74 5.07,10.87 7.33,15.71 16.85,20.3 5.53,2.66 10.95,3.43 20.73,4.8 4.93,0.7 11.38,1.61 21.42,3.37 2.91,0.51 6.23,0.91 9.82,1.35 2.87,0.35 5.96,0.73 8.97,1.19zm0 62.7l0 0.23c0,7.34 -1.46,14.35 -4.09,20.77 -0.34,-2.34 -0.46,-3.16 -0.57,-3.95 -0.24,-1.67 -0.48,-3.31 -1.53,-10.13l-0.06 -0.34c1.89,-1.95 4.01,-4.19 6.25,-6.58zm-89.74 -117.08c0.67,1.24 1.57,2.89 0.02,-0.01l-0.02 0.01zm-11.22 -27.17c0.44,-0.34 0.6,-0.48 -0.03,-0.03l0.03 0.03z"/>
    <polygon fill="white" points="69.87,121.07 281.14,252.54 493.23,120.66 493.64,173.99 281.55,306.29 68.63,173.58 "/>
   </g>
   <path fill="#FFA941" d="M574.79 378.06c7.11,-22.49 -28.25,-22.35 -44.02,-25.12 -44.14,-7.74 -37.36,-1.21 -47.91,-23.08 -3.88,-8.05 -8.31,-16.1 -12.37,-23.69 -6.59,-12.34 -16.85,-42.7 -35.83,-29 -6.21,4.5 -33.16,64.41 -37.78,68.26 -2.52,2.12 -52.23,9.81 -59.95,11.15 -11.14,1.92 -20.63,2.51 -23.35,12.65 -3.1,11.51 6.7,18.03 11.28,22.86 5.94,6.25 11.16,11.72 17.06,17.97 28.33,30.1 26.86,18.41 23.35,42.73 -1.52,10.49 -9.54,55.75 -7.09,62.5 3.04,8.41 12.94,12.24 22.77,7.77 15.96,-7.26 31.79,-15.87 47.5,-23.53 17.51,-8.53 13.72,-9.19 24.85,-3.2l47.71 23.4c43.14,21.24 27.65,-29.28 23.48,-57.39 -0.82,-5.53 -1.55,-10.89 -2.39,-16.32 -1.24,-7.94 -2.68,-8.37 2.26,-13.26 8.2,-8.12 28.36,-30.75 34.33,-35.69 4.78,-3.96 14.05,-12.56 16.1,-19.01z"/>
  </g>
 </g>
</svg>
