<?xml version="1.0" encoding="UTF-8"?>
<!DOCTYPE svg PUBLIC "-//W3C//DTD SVG 1.1//EN" "http://www.w3.org/Graphics/SVG/1.1/DTD/svg11.dtd">
<!-- Creator: CorelDRAW (Versão de avaliação) -->
<svg xmlns="http://www.w3.org/2000/svg" xml:space="preserve" width="5.9266mm" height="5.9266mm" version="1.1" shape-rendering="geometricPrecision" text-rendering="geometricPrecision" image-rendering="optimizeQuality" fill-rule="evenodd" clip-rule="evenodd"
viewBox="0 0 592.66 592.66"
 xmlns:xlink="http://www.w3.org/1999/xlink"
 xmlns:xodm="http://www.corel.com/coreldraw/odm/2003">
 <g id="Camada_x0020_1">
  <metadata id="CorelCorpID_0Corel-Layer"/>
  <g id="_105553253911200">
   <g>
    <path fill="#5181A5" d="M343.7 412.35c-2.38,-2.82 -4.49,-5.98 -6.38,-9.36 -1.68,3.12 -3.32,6.44 -4.91,9.93 -7.32,16.14 -12.17,34.51 -11.07,50.28 0.55,7.86 2.08,20.59 6.02,28.92 0.47,1.01 -3.96,1.17 -1.93,1.41 10.69,1.24 22.24,1.39 33.01,0.04 8.61,-1.07 16.36,-3.03 22.14,-6.07 11.49,-6.05 20.56,-15.81 27.06,-28.67 7.33,-14.49 11.52,-32.8 12.42,-54.18 0.49,-11.44 -0.58,-29.81 -3,-49.07 -7.29,15.31 -17.37,32.4 -31.66,50.89 -0.29,0.38 -0.86,1.19 -1.23,1.71 -1.35,1.92 -2.01,2.85 -4.61,5.06l0 0.09c-2.61,2.21 -3.91,2.77 -6.42,3.86 -0.01,0.01 0.01,0 -0.81,0.45l-16.44 9.18 -12.19 -14.47zm-111.03 8.86c-0.26,0.53 -0.49,0.95 -0.7,1.19l-9.12 25.7c-0.48,0.87 -0.41,0.65 -0.91,1.16 0.08,1.76 -2.22,8.76 -3.25,9.7 -0.4,1.75 -7.52,23.38 -9.56,25.59 0.03,3.3 -2.49,8.02 -3.65,11.74l-5.27 -1.47c-2.61,-0.52 -11.9,-3.09 -14.07,-4.99 -3.25,0 -9.27,-3.16 -12.3,-4.5l-10.7 -5.34c-6.87,-2.23 -28.33,-16.3 -35.43,-22.22l-1.88 -2.13c-1.59,-0.32 -3.57,-2.34 -4.8,-3.41 -1.32,-1.16 -3.47,-2.64 -4.05,-4.07 -2.48,-1.09 -1.59,-1 -4.24,-3.47 -1.72,-1.6 -2.64,-1.9 -3.59,-4.32 1.46,-0.84 2.46,-1.72 3.84,-2.84 1.92,-1.54 1.71,-2.08 4.04,-3.03 0.81,-1.79 4.83,-4.66 6.37,-6.07l2.34 -1.53 37.04 -32.8c6.36,-5.69 12.19,-10.76 18.52,-16.21 2.52,-2.17 16.1,-14.82 18.66,-15.83l5.25 -5 6.3 4.87 13.75 7.68c3.13,0.1 7.72,2.58 11.35,3.62 2.21,0.63 4.43,1.13 6.79,1.6 5.83,-15.94 13.58,-31.35 22.54,-46.27 -0.36,-0.04 -0.71,-0.08 -1.05,-0.15 -1.56,0.95 -3.14,0.84 -5.58,0.74 -4.69,-0.19 -9.48,-1.15 -13.6,-2.77 -10.17,-4 -18.45,-12.51 -22.61,-22.57 -1.63,-3.94 -2.57,-9.18 -2.76,-13.61 -0.13,-3.12 -0.2,-3.52 0.72,-5.09 -1.15,-4.57 1.91,-10.76 3.66,-14.31 2.11,-4.27 4.5,-7.2 7.48,-10.18 3.62,-3.63 15.75,-12.78 23.98,-11.11 1.57,-0.96 3.13,-0.85 5.6,-0.75 18.88,0.78 33.87,13.58 37.91,31.2 10.52,-13.59 21.41,-26.79 32.02,-39.63l1.14 -1.38 -8.03 -9.4c-1.12,-1.36 -0.36,-0.17 -1.08,-1.76 -1.17,-0.35 0.26,0.83 -1.33,-0.71 -1.43,-1.38 -0.44,-0.47 -0.7,-1.33 -1.84,-0.83 -0.63,-0.1 -2.09,-1.39 -3.04,-2.7 -9.43,-7.29 -10.06,-8.76 -2.29,-0.29 -9.07,-4.56 -11.62,-6.01l1.85 -6.38c0.05,-0.1 0.23,-0.17 0.27,-0.41 0.04,-0.24 0.19,-0.28 0.29,-0.41 -0.2,-2.61 1.74,-9.02 2.62,-10.63 0.68,-4.26 2.51,-9.87 3.63,-13.91 0.65,-2.35 1.27,-4.52 1.89,-6.69 0.36,-1.27 0.57,-2.19 0.88,-3.34l1.39 -3.05c-0.07,-2.25 1.2,-7.32 2.24,-9.26 0.41,-2.26 2.84,-12.67 4.4,-14.7 -0.17,-2.14 4.84,-20.43 5.8,-22.05 0.4,-2.55 1.11,-4.68 1.81,-7.26 0.32,-1.16 0.55,-2.08 0.9,-3.34 0.52,-1.82 0.25,-1.81 1.34,-3.02 -0.05,-3.91 3.59,-13.89 4.64,-18.41 4.91,0.7 18.08,7 23.72,9.68l2.49 1.46c5.37,1.9 33.65,19.17 37.09,24.43 0.85,0.22 0.59,0.08 1.48,0.67 0.43,0.29 0.67,0.56 0.98,0.83l6.43 6.01c2.02,0.88 2.68,1.23 3.72,3.56 0.95,0.4 2.23,1.49 3.47,2.69 1.11,-2.05 2.13,-4.1 3.08,-6.15 3.38,-7.29 5.88,-15.01 7.68,-24.07 -1.1,-0.28 -0.22,0.59 -1.84,-0.9 -1.04,-0.96 -0.41,-0.07 -0.62,-1.19 -1.58,-0.81 -10.99,-7.92 -12.37,-9.97l0.19 0.19 -13.15 -8.79c-2.26,-1.45 -4.22,-2.73 -6.7,-4.26 -2.69,-1.66 -4.88,-2.44 -6.31,-4.29 -2.08,-0.25 -9.27,-4.47 -11.7,-5.75 -2.65,-1.39 -9.5,-3.91 -11.12,-5.49l-26.21 -9.96c-2.11,0.22 -8.54,-1.59 -10.42,-2.55 -11.87,-2.21 -21.97,-4.78 -34.83,-6.19 -13.01,-1.43 -25.64,-1.52 -39,-1.17 -8.22,1.01 -16.42,1.31 -24.66,2.54 -5.17,0.77 -19.8,4.45 -23.19,4.25 -1.15,0.98 -1.15,0.85 -3.05,1.36 -1.23,0.33 -2.23,0.54 -3.31,0.85 -2.44,0.69 -4.21,1.41 -6.7,1.78 -1.03,0.75 -9.35,3.34 -11.25,4.07 -3.53,1.35 -7.78,3.72 -11.24,3.99 -1.45,1.84 -10.29,5.18 -12.97,6.56 -3.74,1.93 -9.68,5.61 -13.2,6.73l-22.8 14.84c-0.71,0.99 0.37,0.18 -1.32,1.49 -1.14,0.89 0.4,-0.07 -1.48,0.73 -1.01,1.71 -7.6,7.02 -9.5,7.47l-1.77 2.17c-0.81,0.78 -1.1,0.97 -1.96,1.68l-11.36 10.57c-2.57,2.57 -4.54,5.13 -7.04,7.6 -1.7,1.67 -2.17,2.11 -3.53,3.77l-3.86 3.72c-0.39,1.59 -5.9,8.55 -7.47,9.51 -0.84,1.99 0.42,0.08 -1.04,1.87 -0.63,0.77 -0.37,0.35 -1.18,0.92l-1.62 2.93c-0.84,1.13 -1.1,1.55 -2.01,2.87l-10.46 16.29c-0.49,0.65 -0.58,0.59 -0.74,0.71l-13.07 25.59c0.13,2.58 -3.05,8.74 -4.22,11.83 -0.84,2.2 -3.35,10.24 -4.07,11.24l-3.49 12.76c-1.63,8.09 -3.51,15.18 -4.74,23.46 -1.23,8.22 -1.74,17.15 -2.55,24.91 -0.38,13.37 -0.19,25.75 1.18,38.71 1.36,12.85 3.99,22.98 6.18,34.88 1,1.94 2.8,8.36 2.57,10.42l9.95 26.23c1.55,1.56 4.3,8.75 5.71,11.52 1.33,2.59 5.27,9.15 5.53,11.3l17.34 26.16 -0.2 -0.19 1.85 1.62c0.54,0.6 0.65,0.85 1.04,1.37 2.24,3.07 5.58,6.38 7.1,9.39 1.36,0.24 -0.02,-0.61 1.44,0.91 5.58,5.83 9.19,10.7 16.37,17.19 1.26,1.14 1.99,1.73 3.18,2.92l2.69 3.06c1.38,0.34 -0.05,-0.87 1.85,0.92 1.56,1.46 0.47,0.54 0.82,1.35 2.55,1.09 6.66,5.01 9.55,7.16l2.33 2.2c0.06,-0.11 0.22,0.28 0.32,0.43l-0.21 -0.2 23.29 15.11c0.14,0.08 1.46,0.86 1.53,0.9 1.94,1.43 0.51,0.26 1.36,1.33 2.09,0.24 9.3,4.49 11.7,5.74 2.25,1.18 9.99,3.99 10.87,5.38l26.49 10.07c2.16,-0.21 7.43,1.33 9.46,2.36 6.49,1.09 13.08,2.94 20.24,4.21 7,1.24 13.61,2.07 20.87,2.7 7.63,0.67 14.7,0.87 21.72,0.79 -24.26,-39.83 -31.77,-76.78 -28.55,-111.31zm43.96 -346.63c2.13,-0.65 6.07,-0.13 8.04,0.28l12.08 1.69c-0.11,2.34 -0.01,5.45 -1.02,7.2 0.72,2.81 0.05,6.67 -0.34,9.61l-1.01 13.4 -0.94 10.98 -0.99 13.4 -5.92 73.03 -14.42 -2.91c-0.84,-7.23 -1.92,-14.2 -2.85,-21.5 -0.67,-5.25 -2.87,-16.97 -2.38,-21.45 -1.64,-2.19 -1.6,-10.02 -2.4,-13.42l-0.63 -9.79c-1.21,-1.55 -7.92,-55.12 -8.41,-61.57l20.71 0.82c0.09,-0.14 0.32,0.15 0.48,0.23zm188.06 347.28l6.39 -10.04c0.5,-0.65 0.58,-0.59 0.75,-0.71 1.19,-3.67 4.73,-9.28 6.75,-13.19 0.92,-1.78 2.37,-5.63 3.85,-8.73l-8.27 5.22 4.88 -46.86c1.62,-15.53 4.53,-28.34 7.42,-41.04 6.15,-27.01 12.16,-53.44 0.4,-105.74 -0.36,-1.58 -0.76,-3.24 -1.2,-4.96 -0.68,-1.73 -1.26,-3.37 -1.57,-4.71 -1.55,-1.59 -4.28,-8.74 -5.7,-11.52 -1.29,-2.53 -5.27,-9.14 -5.53,-11.3 -1.16,-0.9 -0.63,-0.28 -1.61,-1.71l-13.59 -21.15c-0.54,1.24 -1.09,2.47 -1.66,3.7 -8.49,18.35 -20.52,34.59 -37.85,56.8 -7.91,10.13 -13.79,17.61 -18.04,22.95 -4.57,5.74 -10.59,13.21 -18,22.34 -8.09,9.97 -11.55,14.16 -15.03,18.38 -37.34,45.22 -78.88,95.52 -86.24,151.24 2.57,-9.26 5.91,-18.3 9.75,-26.76 12.03,-26.51 30.19,-48.83 46.37,-56.59l26.94 -12.93 4.63 24.93c15.18,-26.76 19.99,-48.28 23.08,-62.12 2.06,-9.23 3.59,-16.04 6.9,-21.92l16.02 -28.47 21.32 24.7c10.15,11.76 17.54,35.06 22.35,60.43 5.72,30.16 8.45,65.15 7.64,84.34 -0.22,5.26 -0.6,10.4 -1.15,15.42z"/>
    <path fill="#4BAE4F" d="M345.54 295.99l0 37.37 18.36 -8.81 4.63 24.93c15.18,-26.76 19.99,-48.28 23.08,-62.12 2.06,-9.23 3.59,-16.04 6.9,-21.92l10.61 -18.87 -23.25 0 -3.76 4.64c-8.09,9.97 -11.55,14.16 -15.03,18.38 -7.12,8.62 -14.38,17.42 -21.54,26.4zm-40.95 73.02l-7.45 0c-5.48,11.33 -9.93,22.91 -12.96,34.74l1.54 2.08c1.51,-4.01 3.13,-7.95 4.87,-11.76 4.07,-8.97 8.84,-17.45 14,-25.06zm16.75 84.88l29.91 40.36c2.42,-0.16 4.83,-0.38 7.19,-0.68 8.61,-1.07 16.36,-3.03 22.14,-6.07 11.49,-6.05 20.56,-15.81 27.06,-28.67 7.33,-14.49 11.52,-32.8 12.42,-54.18 0.49,-11.44 -0.58,-29.81 -3,-49.07 -7.29,15.31 -17.37,32.4 -31.66,50.89 -0.29,0.38 -0.86,1.19 -1.23,1.71 -1.35,1.92 -2.01,2.85 -4.61,5.06l0 0.09c-2.61,2.21 -3.91,2.77 -6.42,3.86 -0.01,0.01 0.01,0 -0.81,0.45l-16.44 9.18 -12.19 -14.47c-2.38,-2.82 -4.49,-5.98 -6.38,-9.36 -1.68,3.12 -3.32,6.44 -4.91,9.93 -5.92,13.05 -10.22,27.56 -11.07,40.97zm123.17 53.63l102.65 -138.51 -32.7 0 -0.41 0.26 -39.89 25.14 2.64 -25.4 -12.28 0c1.26,14.67 1.72,27.97 1.32,37.43 -1.18,28.07 -7.01,52.75 -17.27,73.04 -7.27,14.39 -16.7,26.57 -28.22,36.24 8.08,-2.23 16.17,-4.95 24.16,-8.2zm15.54 -174.88l0 -86.07 -37.24 0 13.04 15.1c10.15,11.76 17.54,35.06 22.35,60.43 0.66,3.46 1.27,6.98 1.85,10.54z"/>
   </g>
   <path fill="#FF1F1F" d="M346.84 358.12c2.41,13 6.87,30.62 14.36,39.51 5.16,-2.88 2.18,-0.12 6.07,-5.16 46.25,-59.85 44.47,-103.76 51.25,-115.81 16.62,19.26 25.76,97.48 24.43,128.88 -2.07,49.12 -19.8,85.48 -51.69,102.24 -17.95,9.45 -44.99,11.28 -68.43,8.55 -18.44,-2.15 -23.25,-35.52 -24.38,-51.61 -2.97,-42.43 26.78,-96.23 48.39,-106.6zm155 -8.23c5.11,-49.07 25.52,-73.44 7.37,-154.15 -7.77,-34.51 -34.76,-101.32 -61.1,-115.53 -3.03,51.05 -15.45,69.9 -48,111.61 -12.32,15.79 -23.62,29.96 -35.77,44.94 -64.95,80.05 -157.73,174.92 -77.19,293.81 18.09,26.71 224.42,42.37 280.21,-122.75 11.59,-34.3 12.08,-103.62 -4.47,-135.33 -7.31,9.81 -11.82,46.37 -61.05,77.4z"/>
   <path fill="#FFA941" d="M346.84 358.12c-21.61,10.37 -51.36,64.17 -48.39,106.6 1.13,16.09 5.94,49.46 24.38,51.61 23.44,2.73 50.48,0.9 68.43,-8.55 31.89,-16.76 49.62,-53.12 51.69,-102.24 1.33,-31.4 -7.81,-109.62 -24.43,-128.88 -6.78,12.05 -5,55.96 -51.25,115.81 -3.89,5.04 -0.91,2.28 -6.07,5.16 -7.49,-8.89 -11.95,-26.51 -14.36,-39.51z"/>
  </g>
 </g>
</svg>
