<?xml version="1.0" encoding="UTF-8"?>
<!DOCTYPE svg PUBLIC "-//W3C//DTD SVG 1.1//EN" "http://www.w3.org/Graphics/SVG/1.1/DTD/svg11.dtd">
<!-- Creator: CorelDRAW (Versão de avaliação) -->
<svg xmlns="http://www.w3.org/2000/svg" xml:space="preserve" width="5.9266mm" height="5.9266mm" version="1.1" shape-rendering="geometricPrecision" text-rendering="geometricPrecision" image-rendering="optimizeQuality" fill-rule="evenodd" clip-rule="evenodd"
viewBox="0 0 592.66 592.66"
 xmlns:xlink="http://www.w3.org/1999/xlink"
 xmlns:xodm="http://www.corel.com/coreldraw/odm/2003">
 <g id="Camada_x0020_1">
  <metadata id="CorelCorpID_0Corel-Layer"/>
  <g id="_105553273681760">
   <path fill="#5181A5" d="M75.16 72.6l442.34 0c32.03,0 58.23,26.2 58.23,58.23l0 225.42 0 39.17 0 10.35 0 55.82 0 0.24c0,0.49 -0.01,0.99 -0.02,1.48l0 0.04c-0.01,0.47 -0.03,0.95 -0.05,1.43l-0.01 0.08c-0.02,0.47 -0.05,0.94 -0.09,1.4l0 0.07c-0.04,0.45 -0.08,0.9 -0.12,1.34l-0.02 0.17c-0.05,0.43 -0.1,0.86 -0.15,1.28l-0.02 0.19c-0.06,0.42 -0.12,0.83 -0.18,1.24l-0.03 0.22c-0.06,0.4 -0.13,0.79 -0.2,1.18l-0.06 0.33c-0.06,0.35 -0.13,0.7 -0.2,1.05l-0.09 0.42c-0.06,0.31 -0.13,0.62 -0.2,0.92l-0.12 0.52c-0.07,0.29 -0.14,0.57 -0.21,0.85 -0.05,0.21 -0.11,0.42 -0.16,0.63 -0.06,0.23 -0.12,0.45 -0.18,0.67 -0.08,0.26 -0.15,0.53 -0.23,0.79l-0.15 0.51c-0.09,0.3 -0.19,0.59 -0.28,0.89l-0.01 0.01 -0.1 0.33 -0.01 0.03c-0.14,0.41 -0.28,0.82 -0.42,1.22l-0.03 0.09c-0.15,0.41 -0.3,0.82 -0.45,1.23l-0.02 0.05c-6.06,15.82 -18.83,28.38 -34.78,34.14 -0.23,0.08 -0.46,0.16 -0.69,0.24 -0.22,0.08 -0.44,0.15 -0.66,0.23 -0.25,0.08 -0.49,0.16 -0.74,0.24l-0.57 0.17c-0.27,0.09 -0.54,0.17 -0.82,0.25l-0.55 0.16c-0.29,0.08 -0.59,0.16 -0.89,0.24l-0.42 0.11c-0.35,0.09 -0.69,0.17 -1.04,0.26l-0.3 0.07c-0.37,0.08 -0.75,0.16 -1.12,0.24l-0.28 0.06c-0.39,0.08 -0.78,0.15 -1.17,0.22l-0.24 0.05c-0.41,0.07 -0.81,0.14 -1.21,0.2l-0.21 0.03c-0.42,0.06 -0.85,0.12 -1.27,0.18l-0.14 0.02c-0.44,0.05 -0.88,0.1 -1.32,0.15l-0.13 0.01c-0.46,0.05 -0.92,0.09 -1.38,0.13l-0.06 0c-0.47,0.04 -0.94,0.07 -1.41,0.09l-0.04 0 0 0 -0.03 0.01c-0.47,0.02 -0.95,0.04 -1.42,0.05l-0.06 0c-0.49,0.01 -0.98,0.02 -1.47,0.02l-6.1 0 -86.92 0 -26.79 0 -38.65 0 -125.42 0 -38.65 0 -26.79 0 -86.92 0 -6.1 0c-0.49,0 -0.98,-0.01 -1.47,-0.02l-0.06 0c-0.47,-0.01 -0.95,-0.03 -1.42,-0.05l-0.03 -0.01 0 0 -0.04 0c-0.47,-0.02 -0.94,-0.05 -1.41,-0.09l-0.06 0c-0.46,-0.04 -0.92,-0.08 -1.38,-0.13l-0.13 -0.01c-0.44,-0.05 -0.88,-0.1 -1.32,-0.15l-0.14 -0.02c-0.42,-0.05 -0.85,-0.12 -1.27,-0.18l-0.21 -0.03c-0.4,-0.06 -0.8,-0.13 -1.21,-0.2l-0.24 -0.05c-0.39,-0.07 -0.78,-0.14 -1.17,-0.22l-0.28 -0.06c-0.37,-0.08 -0.75,-0.16 -1.12,-0.24l-0.3 -0.07c-0.34,-0.09 -0.69,-0.17 -1.04,-0.26l-0.42 -0.11c-0.3,-0.08 -0.6,-0.16 -0.89,-0.24l-0.55 -0.16c-0.28,-0.08 -0.55,-0.16 -0.82,-0.25l-0.57 -0.17c-0.25,-0.08 -0.49,-0.16 -0.74,-0.24 -0.22,-0.08 -0.44,-0.15 -0.66,-0.23 -0.23,-0.08 -0.46,-0.16 -0.69,-0.24 -15.95,-5.76 -28.72,-18.32 -34.78,-34.14l-0.02 -0.05c-0.15,-0.41 -0.3,-0.82 -0.45,-1.23l-0.03 -0.09c-0.14,-0.4 -0.28,-0.81 -0.42,-1.22l-0.01 -0.03 -0.1 -0.33 -0.01 -0.01c-0.09,-0.3 -0.19,-0.59 -0.28,-0.89l-0.15 -0.51c-0.08,-0.26 -0.15,-0.53 -0.23,-0.79 -0.06,-0.22 -0.12,-0.44 -0.18,-0.67 -0.05,-0.21 -0.11,-0.42 -0.16,-0.63 -0.07,-0.28 -0.14,-0.56 -0.21,-0.85l-0.12 -0.52c-0.07,-0.3 -0.14,-0.61 -0.2,-0.92l-0.09 -0.42c-0.07,-0.35 -0.14,-0.7 -0.2,-1.05l-0.06 -0.33c-0.07,-0.39 -0.14,-0.78 -0.2,-1.18l-0.03 -0.22c-0.06,-0.41 -0.12,-0.82 -0.18,-1.24l-0.02 -0.19c-0.05,-0.42 -0.1,-0.85 -0.15,-1.28l-0.02 -0.17c-0.04,-0.44 -0.08,-0.89 -0.12,-1.34l0 -0.07c-0.04,-0.46 -0.07,-0.93 -0.09,-1.4l-0.01 -0.08c-0.02,-0.48 -0.04,-0.96 -0.05,-1.43l0 -0.04c-0.01,-0.49 -0.02,-0.99 -0.02,-1.48l0 -0.24 0 -55.82 0 -10.35 0 -39.17 0 -225.42c0,-32.03 26.2,-58.23 58.23,-58.23z"/>
   <polygon fill="white" points="72.81,128.91 295.78,267.66 519.62,128.47 520.06,184.76 296.22,324.39 71.5,184.32 "/>
  </g>
 </g>
</svg>
