<?xml version="1.0" encoding="UTF-8"?>
<!DOCTYPE svg PUBLIC "-//W3C//DTD SVG 1.1//EN" "http://www.w3.org/Graphics/SVG/1.1/DTD/svg11.dtd">
<!-- Creator: CorelDRAW (Versão de avaliação) -->
<svg xmlns="http://www.w3.org/2000/svg" xml:space="preserve" width="5.9266mm" height="5.9266mm" version="1.1" shape-rendering="geometricPrecision" text-rendering="geometricPrecision" image-rendering="optimizeQuality" fill-rule="evenodd" clip-rule="evenodd"
viewBox="0 0 592.66 592.66"
 xmlns:xlink="http://www.w3.org/1999/xlink"
 xmlns:xodm="http://www.corel.com/coreldraw/odm/2003">
 <g id="Camada_x0020_1">
  <metadata id="CorelCorpID_0Corel-Layer"/>
  <path fill="#FFBF00" d="M292.44 17.3c-11.64,2.34 -23.31,14.51 -31.44,20.3 -27.29,19.45 -58.87,-16.07 -75.04,19.66 -5.59,12.35 -9.12,28.07 -18.1,34.23 -10.5,7.21 -24.96,9.58 -35.06,16.28 -13.11,8.69 -11.85,19.91 -9.06,38.11 2.99,19.48 0.89,26.68 -8.61,38.94 -5.67,7.3 -19.4,20.18 -16.57,34.51 2.03,10.3 15.19,23.73 20.37,30.99 19.23,26.92 -15.81,59.07 19.65,75.07 12.26,5.53 28.23,9.19 34.23,18.09 7.11,10.52 9.61,24.96 16.28,35.05 18.15,27.41 45.56,-7.97 76.99,17.74 35.24,28.83 36.39,16.79 65.55,-3.83 13.99,-9.89 24.21,-6.03 41.61,-3.62 43.29,5.99 31.58,-36.66 51.53,-50.28 27.06,-18.46 51.83,-5.69 44.19,-54.33 -3.05,-19.39 -0.94,-26.77 8.56,-39 5.66,-7.28 19.4,-20.16 16.58,-34.48 -2.05,-10.42 -15.1,-23.7 -20.34,-31.02 -19.24,-26.87 15.9,-59.02 -19.65,-75.06 -12.25,-5.53 -28.09,-9.12 -34.23,-18.1 -7.26,-10.64 -9.53,-24.81 -16.29,-35.03 -18.19,-27.49 -44.34,7.77 -77.05,-17.69 -7.2,-5.61 -20.16,-19.33 -34.1,-16.53zm-10.09 43.26c-80.59,7.52 -148.71,78.13 -140.49,168.54 7.35,80.88 78.88,148.68 168.94,140.35 80.33,-7.44 148.14,-78.5 139.99,-168.8 -7.26,-80.39 -79,-148.42 -168.44,-140.09z"/>
  <path fill="#FF9C00" d="M286.91 73.68c-75.2,5.41 -138.16,69.56 -131.87,152.24 5.66,74.51 70.35,136.1 151.29,130.46 74.79,-5.21 137.6,-70.29 131.31,-152.22 -5.69,-74.25 -70.17,-136.28 -150.73,-130.48z"/>
  <path fill="#5181A5" d="M303.04 422.27l58.43 153.3c2.81,-2.57 8.01,-12.79 10.28,-16.69 3.41,-5.83 6.81,-11.88 10.03,-17.61 3.5,-6.24 16.84,-30.66 20.15,-34.17l75.07 24.72 -60.13 -157.83c-4.35,5.07 -7.33,17 -19.35,22.14 -11.67,5 -25.09,1.81 -37.56,0.02 -21.98,-3.16 -25.44,7.37 -42.37,18.77 -4.28,2.88 -9.92,4.54 -14.55,7.35z"/>
  <path fill="#5181A5" d="M115.41 531.64l75.3 -24.64c5.19,5.61 32.19,57.59 40.11,68.73l59.04 -153.37c-4.6,-2.74 -10.29,-4.51 -14.18,-7.05 -18.13,-11.81 -20.11,-22.44 -42.98,-19.16 -12.1,1.73 -25.34,4.73 -36.84,0.26 -12.63,-4.91 -15.77,-17.7 -19.92,-22.2l-60.53 157.43z"/>
  <path fill="white" d="M281.38 247.52c-6.58,-7.33 -15.64,-17.7 -22.91,-24.24 -5.22,-4.7 -7.55,-7.03 -11.95,-11.72 -3.91,-4.16 -7.62,-9.76 -12.36,-12.31 -4.95,4.67 -21.27,18.7 -24.21,23.68 10.92,11.48 22.69,25.7 35.18,36.39l25.94 27.37c2.93,3.1 6.75,5.89 9.26,8.79l96.08 -86.22c3.39,-2.66 3.94,-3.44 7.2,-6.6 4.23,-4.11 11.06,-8.97 14.97,-13.4l-22.07 -25.65c-3.19,1.37 0.08,-0.57 -3.17,2.12l-91.96 81.79z"/>
 </g>
</svg>
