<svg id="Camada_4" data-name="Camada 4" xmlns="http://www.w3.org/2000/svg" viewBox="0 0 16.1 21"><defs><style>.cls-1{fill:none;stroke:#1d1d1b;stroke-width:0.75px;}</style></defs><g id="Page-1"><g id="Document-checklist"><path id="Shape" class="cls-1" d="M20.28,7.29V21a.67.67,0,0,1-.66.66h-14A.66.66,0,0,1,4.93,21V2a.66.66,0,0,1,.65-.65H14l6.24,5.91Z" transform="translate(-4.55 -1.01)"/><path id="Shape-2" data-name="Shape" class="cls-1" d="M20.28,7.55H14.72a.65.65,0,0,1-.65-.65V1.71" transform="translate(-4.55 -1.01)"/><path id="Shape-3" data-name="Shape" class="cls-1" d="M10.15,6.93h2.61" transform="translate(-4.55 -1.01)"/><path id="Shape-4" data-name="Shape" class="cls-1" d="M10.15,10.2h8.49" transform="translate(-4.55 -1.01)"/><path id="Shape-5" data-name="Shape" class="cls-1" d="M10.15,12.48h8.49" transform="translate(-4.55 -1.01)"/><path id="Shape-6" data-name="Shape" class="cls-1" d="M10.15,15.42h8.49" transform="translate(-4.55 -1.01)"/><path id="Shape-7" data-name="Shape" class="cls-1" d="M10.15,17.38h8.49" transform="translate(-4.55 -1.01)"/><rect id="Rectangle-path" class="cls-1" x="2.33" y="4.95" width="1.96" height="1.96"/><rect id="Rectangle-path-2" data-name="Rectangle-path" class="cls-1" x="2.33" y="8.21" width="1.96" height="1.96"/><rect id="Rectangle-path-3" data-name="Rectangle-path" class="cls-1" x="2.33" y="13.44" width="1.96" height="1.96"/></g></g></svg>