<svg xmlns="http://www.w3.org/2000/svg" xmlns:xlink="http://www.w3.org/1999/xlink" viewBox="0 0 21.89 22.58"><defs><style>.cls-1{fill:#3aaa35;}</style><symbol id="Verificar_-_cinza" data-name="Verificar - cinza" viewBox="0 0 32 26"><polygon class="cls-1" points="32 5.91 26.08 0 11.91 14.17 5.92 8.17 0 14.09 11.91 26 11.91 25.98 11.93 26 32 5.91"/></symbol></defs><g id="Camada_4" data-name="Camada 4"><rect x="2.34" y="17.17" width="10.15" height="0.78"/><rect x="2.34" y="5.46" width="5.46" height="0.78"/><rect x="2.34" y="14.83" width="10.15" height="0.78"/><rect x="2.34" y="3.12" width="5.46" height="0.78"/><path d="M12.44,1.51H3.86A1.56,1.56,0,0,0,2.3,3.07V21a1.56,1.56,0,0,0,1.56,1.56H15.57A1.57,1.57,0,0,0,17.13,21V7Zm0,1.17L16.11,7H13.22a.84.84,0,0,1-.78-.78ZM16.35,21a.79.79,0,0,1-.78.78H3.86A.78.78,0,0,1,3.08,21V3.07a.78.78,0,0,1,.78-.78h7.8v3.9a1.57,1.57,0,0,0,1.56,1.56h3.13Z" transform="translate(-2.3 -1.51)"/><rect x="2.34" y="12.49" width="10.15" height="0.78"/><rect x="2.34" y="7.8" width="10.15" height="0.78"/><rect x="2.34" y="10.15" width="10.15" height="0.78"/></g><g id="Camada_2" data-name="Camada 2"><use width="32" height="26" transform="translate(3.7 7.8) scale(0.57)" xlink:href="#Verificar_-_cinza"/></g></svg>