<svg id="Camada_6" data-name="Camada 6" xmlns="http://www.w3.org/2000/svg" xmlns:xlink="http://www.w3.org/1999/xlink" viewBox="0 0 20.01 19.99"><defs><style>.cls-1{opacity:0.8;mix-blend-mode:multiply;fill:url(#Gradiente_sem_nome_4);}</style><linearGradient id="Gradiente_sem_nome_4" x1="18" y1="34.89" x2="18" y2="1.04" gradientUnits="userSpaceOnUse"><stop offset="0" stop-color="#fff"/><stop offset="1" stop-color="#1d71b8"/></linearGradient><symbol id="Imprimir_-_laranja" data-name="Imprimir - laranja" viewBox="0 0 35 34.97"><path class="cls-1" d="M35,16.36c0-1.36-1.43-2.47-3.19-2.47h-.7V11.43a2.13,2.13,0,0,0-1.69-2.07V8L22.3,1H6.58V9.36A2.12,2.12,0,0,0,4.9,11.43v2.46H4.19C2.43,13.89,1,15,1,16.36v9.79a3.19,3.19,0,0,0,3.19,3.19H6.58V35H29.42V29.34h2.39A3.19,3.19,0,0,0,35,26.15Zm-8.1-8.6H22.28V3.21ZM20.68,3.13V9.36H27.3v4.53H8.7V3.13ZM27.3,32.84H8.7V24.13H27.3Zm4.51-6.16H29.42V22H6.58v4.67H4.19a.53.53,0,0,1-.53-.53V18.79H32.34v7.36A.53.53,0,0,1,31.81,26.68Z"/><path d="M34,15.36c0-1.36-1.43-2.47-3.19-2.47H30.1V10.43a2.12,2.12,0,0,0-1.68-2.07V7L21.3,0H5.58V8.36a2.13,2.13,0,0,0-1.69,2.07v2.46h-.7C1.43,12.89,0,14,0,15.36v9.79a3.2,3.2,0,0,0,3.19,3.19H5.58V34H28.42V28.34h2.39A3.2,3.2,0,0,0,34,25.15Zm-8.1-8.6H21.27V2.21ZM19.68,2.13V8.36H26.3v4.53H7.7V2.13ZM26.3,31.84H7.7V23.13H26.3Zm4.51-6.16H28.42V21H5.58v4.68H3.19a.53.53,0,0,1-.53-.53V17.79H31.34v7.36A.53.53,0,0,1,30.81,25.68Z"/></symbol></defs><use width="35" height="34.97" transform="translate(0 0) scale(0.57)" xlink:href="#Imprimir_-_laranja"/></svg>