<?xml version="1.0" encoding="UTF-8"?>
<!DOCTYPE svg PUBLIC "-//W3C//DTD SVG 1.1//EN" "http://www.w3.org/Graphics/SVG/1.1/DTD/svg11.dtd">
<!-- Creator: CorelDRAW (Versão de avaliação) -->
<svg xmlns="http://www.w3.org/2000/svg" xml:space="preserve" width="5.9266mm" height="5.9266mm" version="1.1" shape-rendering="geometricPrecision" text-rendering="geometricPrecision" image-rendering="optimizeQuality" fill-rule="evenodd" clip-rule="evenodd"
viewBox="0 0 592.66 592.66"
 xmlns:xlink="http://www.w3.org/1999/xlink"
 xmlns:xodm="http://www.corel.com/coreldraw/odm/2003">
 <g id="Camada_x0020_1">
  <metadata id="CorelCorpID_0Corel-Layer"/>
  <path fill="#5181A5" d="M147.03 49.86l0 72.77 298.6 0c5.09,-21.83 2.51,-47.57 2.51,-70.26 0,-5.88 -4.16,-10.04 -10.04,-10.04l-283.55 0c-5.78,0 -7.52,1.75 -7.52,7.53zm346.28 153.07c13.86,0 25.09,11.23 25.09,25.09 0,13.86 -11.23,25.09 -25.09,25.09 -13.86,0 -25.09,-11.23 -25.09,-25.09 0,-13.86 11.23,-25.09 25.09,-25.09zm-298.61 343.77c16.53,3.85 122.02,4.64 175.07,2.37 -11.31,-6.08 -21.63,-13.77 -30.63,-22.78 -23.63,-23.62 -38.24,-56.26 -38.24,-92.31 0,-23.85 6.39,-46.2 17.56,-65.44l-116.23 0c-12.25,0 -7.54,25.91 -7.53,37.64l0 140.52zm203.28 -19.84l0.19 -140.97c0.07,-9.36 1.94,-17.35 -7.74,-17.35l-32.87 0c-15.44,17.42 -24.81,40.33 -24.81,65.44 0,27.26 11.05,51.94 28.91,69.8 10.16,10.16 22.53,18.11 36.32,23.08zm-353.84 -321.43l0 205.77c0,49.43 78.31,43.14 94.76,24.49 26.06,-29.54 -22.59,-112.32 50.79,-112.32l172.38 0c20.1,-12.64 43.89,-19.95 69.38,-19.95 36.05,0 68.69,14.62 92.32,38.24 10.01,10.01 18.4,21.64 24.74,34.45l0 -170.68c0,-26.26 -18.98,-37.64 -45.16,-37.64l-414.04 0c-11.62,0 -24.57,3.24 -31.7,8.45 -7.56,5.52 -13.47,16.81 -13.47,29.19zm393.74 130.05c11.16,14.61 7.79,39.25 7.75,55.64 -0.1,42.67 2.45,57.72 57.72,57.72 10.07,0 19.08,-1.69 26.35,-5.26 0.3,-3.16 0.46,-6.36 0.46,-9.6 0,-27.26 -11.05,-51.94 -28.91,-69.8 -16.45,-16.45 -38.67,-27.12 -63.37,-28.7z"/>
  <g id="_105553379122432">
   <path fill="#FED768" d="M431.45 319.35c63.31,0 114.64,51.32 114.64,114.63 0,63.31 -51.33,114.63 -114.64,114.63 -63.31,0 -114.63,-51.32 -114.63,-114.63 0,-63.31 51.32,-114.63 114.63,-114.63z"/>
   <g>
    <path fill="white" d="M411.95 359.58c-5.32,1.68 -4.79,5.93 -4.44,12.06 0.31,5.35 0.6,10.76 0.89,16.12 0.59,10.9 1.19,21.82 1.79,32.75 0.29,5.36 0.6,10.7 0.88,16.09 0.74,14.04 4.21,11.26 23.05,11.26 20.07,0 16.9,2.69 18.82,-32.2 0.6,-11.03 2.67,-39.11 2.67,-48.86 0,-6.27 -3.51,-7.6 -9.68,-7.57 -5.42,0.03 -31.02,-0.59 -33.98,0.35z"/>
    <path fill="white" d="M426.25 458.48c-33.92,7.72 -21.79,56.79 10.82,49.73 11.98,-2.6 22.65,-15.18 19.19,-30.48 -2.73,-12.02 -14.77,-22.72 -30.01,-19.25z"/>
   </g>
  </g>
  <path fill="#ED008B" d="M350.31 353.14c3.55,3.78 7.01,6.96 9.99,10.2l54.11 53.97c0.06,0.06 0.14,0.15 0.2,0.21 0.51,0.52 0.68,0.72 1.22,1.28 2.23,2.28 14,14.39 15.61,15.33 9.1,-10.34 29.12,-28.99 40.27,-40.5l40.56 -40.31c-0.71,-1.85 -2.14,-2.56 -3.5,-3.77 -9.42,-8.33 -18.11,-14.78 -30.26,-20.05 -41.25,-17.87 -86.96,-11.9 -120.89,16.56 -1.28,1.07 -6.87,5.45 -7.31,7.08z"/>
  <path fill="#FEF004" d="M512.41 352.97c-3.78,3.55 -6.96,7.01 -10.2,9.99l-53.95 54.13c-0.06,0.06 -0.15,0.15 -0.21,0.2 -0.51,0.51 -0.72,0.68 -1.27,1.22 -2.29,2.23 -14.4,14.01 -15.34,15.62 10.35,9.1 29.01,29.11 40.52,40.26l40.33 40.54c1.85,-0.71 2.56,-2.14 3.76,-3.5 8.34,-9.42 14.78,-18.12 20.04,-30.27 17.86,-41.25 11.87,-86.97 -16.6,-120.88 -1.08,-1.28 -5.45,-6.87 -7.08,-7.31z"/>
  <path fill="#010101" d="M513.6 514.09c-3.59,-3.73 -7.1,-6.87 -10.12,-10.07l-54.79 -53.29c-0.06,-0.05 -0.14,-0.14 -0.2,-0.2 -0.52,-0.51 -0.69,-0.71 -1.24,-1.26 -2.25,-2.26 -14.18,-14.22 -15.81,-15.14 -8.96,10.46 -28.75,29.36 -39.75,41.01l-40.04 40.82c0.73,1.85 2.17,2.54 3.54,3.73 9.53,8.21 18.3,14.55 30.52,19.66 41.47,17.35 87.1,10.8 120.66,-18.09 1.27,-1.09 6.81,-5.53 7.23,-7.17z"/>
  <path fill="#02AEF2" d="M350.94 515.75c3.76,-3.56 6.92,-7.04 10.14,-10.05l53.65 -54.43c0.06,-0.06 0.15,-0.15 0.2,-0.2 0.52,-0.51 0.72,-0.69 1.27,-1.23 2.27,-2.24 14.31,-14.09 15.24,-15.71 -10.4,-9.03 -29.16,-28.94 -40.74,-40.02l-40.56 -40.31c-1.85,0.72 -2.55,2.15 -3.74,3.52 -8.28,9.47 -14.68,18.2 -19.87,30.38 -17.63,41.35 -11.37,87.03 17.29,120.79 1.08,1.27 5.49,6.83 7.12,7.26z"/>
 </g>
</svg>
