<?xml version="1.0" encoding="UTF-8"?>
<!DOCTYPE svg PUBLIC "-//W3C//DTD SVG 1.1//EN" "http://www.w3.org/Graphics/SVG/1.1/DTD/svg11.dtd">
<!-- Creator: CorelDRAW (Versão de avaliação) -->
<svg xmlns="http://www.w3.org/2000/svg" xml:space="preserve" width="5.9266mm" height="5.9266mm" version="1.1" shape-rendering="geometricPrecision" text-rendering="geometricPrecision" image-rendering="optimizeQuality" fill-rule="evenodd" clip-rule="evenodd"
viewBox="0 0 592.66 592.66"
 xmlns:xlink="http://www.w3.org/1999/xlink"
 xmlns:xodm="http://www.corel.com/coreldraw/odm/2003">
 <g id="Camada_x0020_1">
  <metadata id="CorelCorpID_0Corel-Layer"/>
  <path fill="#5181A5" d="M145.95 48.09l0 73.29 300.75 0c5.12,-21.98 2.53,-47.9 2.53,-70.76 0,-5.92 -4.19,-10.11 -10.11,-10.11l-285.58 0c-5.83,0 -7.59,1.76 -7.59,7.58zm348.77 154.17c13.96,0 25.28,11.31 25.28,25.27 0,13.96 -11.32,25.27 -25.28,25.27 -13.95,0 -25.27,-11.31 -25.27,-25.27 0,-13.96 11.32,-25.27 25.27,-25.27zm-300.75 346.23c20.94,4.88 183.78,4.88 204.72,0l0.21 -161.96c0.07,-9.42 1.95,-17.47 -7.8,-17.47l-189.54 0c-12.34,0 -7.6,26.1 -7.59,37.91l0 141.52zm-151.63 -343.71l0 207.24c0,49.79 78.86,43.46 95.43,24.67 26.25,-29.75 -22.75,-113.13 51.15,-113.13l219.87 0c45.6,0 37.97,43.48 37.91,68.24 -0.1,42.97 2.47,58.13 58.13,58.13 26.38,0 45.49,-11.46 45.49,-37.91l0 -207.24c0,-26.45 -19.11,-37.91 -45.49,-37.91l-417 0c-11.71,0 -24.75,3.27 -31.93,8.51 -7.62,5.56 -13.56,16.93 -13.56,29.4z"/>
 </g>
</svg>
