<svg id="Camada_4" data-name="Camada 4" xmlns="http://www.w3.org/2000/svg" viewBox="0 0 15.78 22.43"><rect x="2.49" y="18.27" width="10.8" height="0.83"/><rect x="2.49" y="5.81" width="5.81" height="0.83"/><rect x="2.49" y="15.78" width="10.8" height="0.83"/><rect x="2.49" y="3.32" width="5.81" height="0.83"/><path d="M15.63.91H6.49A1.67,1.67,0,0,0,4.83,2.57V21.68a1.67,1.67,0,0,0,1.66,1.66H19a1.67,1.67,0,0,0,1.66-1.66V6.73Zm0,1.25,3.9,4.57H16.46a.89.89,0,0,1-.83-.83Zm4.15,19.52a.83.83,0,0,1-.83.83H6.49a.83.83,0,0,1-.83-.83V2.57a.83.83,0,0,1,.83-.83H14.8V5.9a1.66,1.66,0,0,0,1.66,1.66h3.32Z" transform="translate(-4.83 -0.91)"/><rect x="2.49" y="13.29" width="10.8" height="0.83"/><rect x="2.49" y="8.31" width="10.8" height="0.83"/><rect x="2.49" y="10.8" width="10.8" height="0.83"/></svg>