<svg id="preto_branco" xmlns="http://www.w3.org/2000/svg" xmlns:xlink="http://www.w3.org/1999/xlink" viewBox="0 0 22.25 21.88"><defs><style>.cls-1{fill:url(#Gradiente_sem_nome_4);}.cls-2{fill:#3c3c3b;}.cls-3{fill:#575756;}.cls-4{fill:#9d9d9c;}.cls-5{fill:#c6c6c6;}.cls-6{fill:#dadada;}.cls-7{fill:#1d1d1b;}.cls-8{fill:url(#Gradiente_sem_nome_4-2);}.cls-9{fill:url(#Gradiente_sem_nome_4-3);}</style><linearGradient id="Gradiente_sem_nome_4" x1="6.37" y1="3.94" x2="6.37" y2="3.94" gradientUnits="userSpaceOnUse"><stop offset="0" stop-color="#fff"/><stop offset="1" stop-color="#1d71b8"/></linearGradient><linearGradient id="Gradiente_sem_nome_4-2" x1="21.4" y1="20.82" x2="21.4" y2="20.82" xlink:href="#Gradiente_sem_nome_4"/><linearGradient id="Gradiente_sem_nome_4-3" x1="18.15" y1="22.88" x2="18.15" y2="22.88" xlink:href="#Gradiente_sem_nome_4"/></defs><path class="cls-1" d="M6.37,3.94" transform="translate(-0.92 -1.11)"/><path class="cls-2" d="M14.62,13.89l5.66,3.26a1.77,1.77,0,0,1,.55,1,1.88,1.88,0,0,1-.53,1.6,10.88,10.88,0,0,1-2.19,1.78,11.48,11.48,0,0,1-2.81,1.23,3.51,3.51,0,0,1-.56.17,2,2,0,0,1-1.59-.23,1.65,1.65,0,0,1-.6-1.17l.07-6.64a1.72,1.72,0,0,1,2-1Z" transform="translate(-0.92 -1.11)"/><path class="cls-3" d="M14.79,11l5.55-3.44a1.79,1.79,0,0,1,1.14,0,1.9,1.9,0,0,1,1.15,1.23,10.59,10.59,0,0,1,.52,2.77,10.78,10.78,0,0,1-.25,3.06,2.65,2.65,0,0,1-.11.57,2,2,0,0,1-1,1.29,1.69,1.69,0,0,1-1.32,0l-5.8-3.21a1.76,1.76,0,0,1-.37-1A1.79,1.79,0,0,1,14.79,11Z" transform="translate(-0.92 -1.11)"/><path class="cls-4" d="M12.56,9l-.05-6.53a1.74,1.74,0,0,1,.57-1,1.93,1.93,0,0,1,1.65-.36,11.22,11.22,0,0,1,2.63,1A11.07,11.07,0,0,1,19.85,4a2.43,2.43,0,0,1,.43.4,2,2,0,0,1,.61,1.49A1.73,1.73,0,0,1,20.18,7l-5.77,3.29A1.72,1.72,0,0,1,12.56,9Z" transform="translate(-0.92 -1.11)"/><path class="cls-5" d="M9.48,10.21,3.82,7a1.8,1.8,0,0,1-.56-1,2,2,0,0,1,.53-1.6A11.12,11.12,0,0,1,6,2.59,11.45,11.45,0,0,1,8.8,1.35a2.49,2.49,0,0,1,.55-.16,2,2,0,0,1,1.6.22,1.68,1.68,0,0,1,.59,1.18l-.07,6.64a1.7,1.7,0,0,1-.73.8A1.81,1.81,0,0,1,9.48,10.21Z" transform="translate(-0.92 -1.11)"/><path class="cls-6" d="M9.3,13.15,3.75,16.58a1.76,1.76,0,0,1-1.13,0,1.91,1.91,0,0,1-1.16-1.22,11.06,11.06,0,0,1-.27-5.83A2.38,2.38,0,0,1,1.31,9a2,2,0,0,1,.95-1.29,1.73,1.73,0,0,1,1.32,0l5.81,3.22a1.73,1.73,0,0,1-.09,2.22Z" transform="translate(-0.92 -1.11)"/><path class="cls-7" d="M11.46,15.05l.15,6.53a1.75,1.75,0,0,1-.56,1,1.94,1.94,0,0,1-1.64.38,11.18,11.18,0,0,1-5.16-2.72,2.36,2.36,0,0,1-.44-.39,2.06,2.06,0,0,1-.63-1.49,1.63,1.63,0,0,1,.7-1.11l5.71-3.38a1.7,1.7,0,0,1,1.07.21A1.76,1.76,0,0,1,11.46,15.05Z" transform="translate(-0.92 -1.11)"/><path class="cls-8" d="M21.4,20.82" transform="translate(-0.92 -1.11)"/><path class="cls-9" d="M18.15,22.88" transform="translate(-0.92 -1.11)"/></svg>