<?xml version="1.0" encoding="UTF-8"?>
<!DOCTYPE svg PUBLIC "-//W3C//DTD SVG 1.1//EN" "http://www.w3.org/Graphics/SVG/1.1/DTD/svg11.dtd">
<!-- Creator: CorelDRAW (Versão de avaliação) -->
<svg xmlns="http://www.w3.org/2000/svg" xml:space="preserve" width="5.9266mm" height="5.9266mm" version="1.1" shape-rendering="geometricPrecision" text-rendering="geometricPrecision" image-rendering="optimizeQuality" fill-rule="evenodd" clip-rule="evenodd"
viewBox="0 0 592.66 592.66"
 xmlns:xlink="http://www.w3.org/1999/xlink"
 xmlns:xodm="http://www.corel.com/coreldraw/odm/2003">
 <g id="Camada_x0020_1">
  <metadata id="CorelCorpID_0Corel-Layer"/>
  <path fill="#FFA941" d="M147.03 49.86l0 72.77 298.6 0c5.09,-21.83 2.51,-47.57 2.51,-70.26 0,-5.88 -4.16,-10.04 -10.04,-10.04l-283.55 0c-5.78,0 -7.52,1.75 -7.52,7.53zm346.28 153.07c13.86,0 25.09,11.23 25.09,25.09 0,13.86 -11.23,25.09 -25.09,25.09 -13.86,0 -25.09,-11.23 -25.09,-25.09 0,-13.86 11.23,-25.09 25.09,-25.09zm-298.61 343.77c20.79,4.84 182.47,4.84 203.26,0l0.21 -160.81c0.07,-9.36 1.94,-17.35 -7.74,-17.35l-188.2 0c-12.25,0 -7.54,25.91 -7.53,37.64l0 140.52zm-150.56 -341.27l0 205.77c0,49.43 78.31,43.14 94.76,24.49 26.06,-29.54 -22.59,-112.32 50.79,-112.32l218.3 0c45.27,0 37.7,43.17 37.64,67.76 -0.1,42.66 2.45,57.71 57.72,57.71 26.18,0 45.16,-11.38 45.16,-37.64l0 -205.77c0,-26.26 -18.98,-37.64 -45.16,-37.64l-414.04 0c-11.62,0 -24.57,3.24 -31.7,8.45 -7.56,5.52 -13.47,16.81 -13.47,29.19z"/>
 </g>
</svg>
