<?xml version="1.0" encoding="UTF-8"?>
<!DOCTYPE svg PUBLIC "-//W3C//DTD SVG 1.1//EN" "http://www.w3.org/Graphics/SVG/1.1/DTD/svg11.dtd">
<!-- Creator: CorelDRAW (Versão de avaliação) -->
<svg xmlns="http://www.w3.org/2000/svg" xml:space="preserve" width="44.45mm" height="13.4936mm" version="1.1" shape-rendering="geometricPrecision" text-rendering="geometricPrecision" image-rendering="optimizeQuality" fill-rule="evenodd" clip-rule="evenodd"
viewBox="0 0 4445 1349.36"
 xmlns:xlink="http://www.w3.org/1999/xlink"
 xmlns:xodm="http://www.corel.com/coreldraw/odm/2003">
 <g id="Camada_x0020_1">
  <metadata id="CorelCorpID_0Corel-Layer"/>
  <g id="_105553275960128">
   <path fill="#004D71" fill-rule="nonzero" d="M2798.15 661.03c-22.44,0.31 -41.32,3.15 -60,8.77 -30.17,9.21 -53.19,25.76 -70.56,48.8 -29.04,38.27 -28.6,83.82 -28.6,83.82l0 317.92 84.95 0c5.38,0 9.84,-4.51 9.88,-9.91l0 -302.17c-0.04,-5.99 0.8,-26.89 12.67,-37.52 9.37,-8.44 22.08,-12.55 34.45,-14.37 13.65,-1.93 26.46,-1.04 32.84,-0.21 0,0 1.41,0.1 2.14,0.1 6.18,0 11.56,-3.38 14.56,-8.29l43.56 -74.87c-24.29,-8.39 -48.47,-12.45 -75.89,-12.07z"/>
   <path fill="#004D71" fill-rule="nonzero" d="M2548.92 661.03c-22.44,0.31 -41.37,3.15 -60,8.77 -30.2,9.21 -53.2,25.76 -70.66,48.8 -29.01,38.27 -28.55,83.82 -28.55,83.82l0 317.92 84.98 0c5.37,0 9.81,-4.51 9.86,-9.91l0 -302.17c-0.05,-5.99 0.82,-26.89 12.62,-37.52 9.42,-8.44 22.1,-12.55 34.5,-14.37 13.73,-1.93 26.35,-1.04 32.86,-0.21 0,0 1.38,0.1 2.18,0.1 6.09,0 11.57,-3.38 14.54,-8.29l43.53 -74.87c-24.29,-8.39 -48.41,-12.45 -75.86,-12.07z"/>
   <path fill="#004D71" fill-rule="nonzero" d="M1808.85 1002.74c-3.26,-4.2 -8.33,-6.98 -14.11,-6.98 -3.24,0 -6.28,0.89 -8.93,2.42l-0.32 0.23c-28.98,17.38 -62.86,27.39 -99.11,27.39 -106.64,0 -193.42,-86.83 -193.42,-193.51 0,-106.6 86.78,-193.37 193.42,-193.37 36.11,0 69.93,9.95 98.95,27.24 2.68,1.73 5.92,2.71 9.33,2.71 5.67,0 10.71,-2.67 13.97,-6.7l48.45 -62.83c-47.89,-35.23 -106.89,-55.93 -170.7,-55.93 -159.31,0 -288.95,129.58 -288.95,288.88 0,159.36 129.64,289 288.95,289 63.87,0 122.89,-20.78 170.77,-55.96l-48.3 -62.59z"/>
   <path fill="#004D71" fill-rule="nonzero" d="M3093.91 654.3c-128.62,0 -233.23,104.59 -233.23,233.25 0,127.22 104.69,231.93 233.35,233.25 2.27,0 6.87,0.04 6.87,0.04 50.79,0 91.41,-6.98 145.19,-41.85l8.72 -5.71c0,0 -47.82,-61.89 -48.32,-62.5 -3.18,-4.17 -8.16,-6.88 -13.69,-6.88 -3.13,0 -6.03,0.86 -8.6,2.37 -12.06,6.25 -49.48,23.11 -90.29,23.14 -61.52,0.04 -113.98,-39.39 -133.57,-94.27l319.14 0 36.91 -0.16c5.53,0 9.96,-4.39 9.96,-9.88l0.54 -27.08c0.19,-3.56 0.25,-7.06 0.25,-10.47 0,-128.66 -104.64,-233.25 -233.23,-233.25zm0 91.46l0 0c62.56,0 115.76,40.73 134.54,97.12l-269.06 0c18.74,-56.39 71.93,-97.12 134.52,-97.12z"/>
   <path fill="#004D71" fill-rule="nonzero" d="M3391.41 1121.27c-5.33,0 -9.69,-4.22 -9.87,-9.5l0 -432.55c0.04,-5.19 4.24,-9.48 9.47,-9.72l75.51 0c5.41,0 9.78,4.44 9.78,9.87l0 432.13c0,5.44 -4.37,9.77 -9.78,9.77l-75.11 0z"/>
   <path fill="#004D71" fill-rule="nonzero" d="M2108.63 1121.27c-130.16,0 -236.06,-105.88 -236.06,-236.05 0,-130.16 105.9,-236.1 236.06,-236.1 130.18,0 236.15,105.94 236.15,236.1 0,130.17 -105.97,236.05 -236.15,236.05zm0 -376.8l0 0c-77.61,0 -140.74,63.11 -140.74,140.75 0,77.63 63.13,140.75 140.74,140.75 77.65,0 140.8,-63.12 140.8,-140.75 0,-77.64 -63.15,-140.75 -140.8,-140.75z"/>
   <path fill="#004D71" fill-rule="nonzero" d="M3757.11 1120.65c-128.84,0 -233.55,-104.8 -233.55,-233.53 0,-128.84 104.71,-233.59 233.55,-233.59 128.88,0 233.65,104.75 233.65,233.59 0,128.73 -104.77,233.53 -233.65,233.53zm0 -372.81l0 0c-76.75,0 -139.28,62.47 -139.28,139.28 0,76.81 62.53,139.26 139.28,139.26 76.84,0 139.39,-62.45 139.39,-139.26 0,-76.81 -62.55,-139.28 -139.39,-139.28z"/>
   <path fill="#004D71" fill-rule="nonzero" d="M4256.18 851.33c-16.42,-7.4 -37.23,-12.19 -59.98,-17.9 -33.52,-8.32 -64.69,-10.16 -76.37,-28.24 -10.74,-16.65 -4.94,-36.29 9.59,-46.3 33.05,-22.75 77.84,-13.63 102.61,-2.24 4.28,1.96 22.57,12.59 22.57,12.59 2.62,1.57 5.72,2.58 8.97,2.58 5.77,0 10.81,-2.86 13.88,-7.26 0.34,-0.39 47.26,-61.15 47.26,-61.15l-7.97 -6.27c-4.67,-3.38 -11.11,-7.92 -17.99,-11.83 -14,-8.03 -56.59,-32.57 -118.72,-32.57 -1.78,0 -3.65,0.03 -5.55,0.07 -136.06,3.2 -154.86,99.27 -154.86,133.23 0,51.54 26.52,88.46 66.41,111.53 31.93,18.44 92.31,28.42 123.09,37.69 16.04,4.85 27.91,15.93 32.27,26.77 1.92,4.82 3.03,9.83 3.22,15.07 0.53,17.66 -8.96,38.25 -35.41,46.39 -29.26,8.99 -75.5,5.21 -117.32,-27.54 -1.37,-1.07 -5.92,-4.79 -7.58,-5.4 -1.96,-0.74 -4.04,-1.11 -6.3,-1.11 -5.97,0 -10.61,3.22 -14.1,7.83 -0.62,0.8 -46.43,59.9 -46.43,59.9 0,0 16.13,13.41 21.51,17.47 26.37,19.79 73.67,46.72 135.81,46.72l2.33 0c130.83,-0.44 162.04,-93.33 162.04,-144.45 0,-52.21 -32,-102.71 -82.98,-125.58z"/>
   <g>
    <path fill="#0088CC" d="M626.93 254.47l401.46 0c30.83,0 58.27,14.49 75.91,37.02l181.42 232.22c4.23,5.43 6.75,12.27 6.75,19.7 0,7.44 -2.52,14.28 -6.76,19.72l-181.41 232.2c-17.64,22.53 -45.08,37.02 -75.91,37.02l-401.46 0 225.74 -288.94 -225.74 -288.94z"/>
    <path fill="#004D71" d="M852.67 543.41l164.96 -211.13c6.39,-8.17 10.2,-18.47 10.2,-29.65 0,-26.59 -21.56,-48.16 -48.16,-48.16l-352.74 0 225.74 288.94z"/>
    <path fill="#FFD527" d="M771.4 1121.28l-401.48 0c-30.83,0 -58.26,-14.48 -75.89,-37.01l-181.44 -232.22c-4.24,-5.43 -6.75,-12.27 -6.75,-19.7 0,-7.44 2.52,-14.29 6.78,-19.73l181.41 -232.19c17.63,-22.53 45.06,-37.02 75.89,-37.02l401.48 0 -225.76 288.94 225.76 288.93z"/>
    <path fill="#D19C2E" d="M545.64 832.35l-164.94 211.13c-6.39,8.17 -10.22,18.46 -10.22,29.64 0,26.6 21.57,48.16 48.15,48.16l352.77 0 -225.76 -288.93z"/>
   </g>
  </g>
 </g>
</svg>
