<?xml version="1.0" encoding="UTF-8"?>
<!DOCTYPE svg PUBLIC "-//W3C//DTD SVG 1.1//EN" "http://www.w3.org/Graphics/SVG/1.1/DTD/svg11.dtd">
<!-- Creator: CorelDRAW (Versão de avaliação) -->
<svg xmlns="http://www.w3.org/2000/svg" xml:space="preserve" width="5.9266mm" height="5.9266mm" version="1.1" shape-rendering="geometricPrecision" text-rendering="geometricPrecision" image-rendering="optimizeQuality" fill-rule="evenodd" clip-rule="evenodd"
viewBox="0 0 592.66 592.66"
 xmlns:xlink="http://www.w3.org/1999/xlink"
 xmlns:xodm="http://www.corel.com/coreldraw/odm/2003">
 <g id="Camada_x0020_1">
  <metadata id="CorelCorpID_0Corel-Layer"/>
  <path fill="#5181A5" d="M278.96 407.02c-1.08,4.86 -3.82,11.24 -5.53,15.98 -1.06,2.96 -4.02,12.99 -6.07,15.04 -0.03,2.35 -2.51,9.79 -3.8,11.36l-10.47 29.47c-0.55,0.99 -0.47,0.74 -1.03,1.33 0.08,2.01 -2.56,10.04 -3.73,11.13 -0.46,1.99 -8.63,26.81 -10.97,29.34 0.03,3.78 -2.86,9.19 -4.19,13.46l-6.04 -1.68c-2.99,-0.6 -13.65,-3.55 -16.13,-5.73 -3.74,0.01 -10.63,-3.62 -14.11,-5.16l-12.27 -6.12c-7.89,-2.56 -32.5,-18.7 -40.64,-25.49l-2.15 -2.43c-1.82,-0.38 -4.1,-2.69 -5.51,-3.92 -1.51,-1.33 -3.98,-3.03 -4.65,-4.67 -2.83,-1.25 -1.82,-1.15 -4.86,-3.98 -1.97,-1.83 -3.03,-2.17 -4.11,-4.95 1.67,-0.97 2.81,-1.97 4.4,-3.25 2.2,-1.78 1.96,-2.39 4.63,-3.49 0.93,-2.04 5.55,-5.33 7.31,-6.96l2.68 -1.75 42.48 -37.62c7.3,-6.52 13.98,-12.33 21.24,-18.59 2.89,-2.49 18.46,-16.99 21.4,-18.15l6.03 -5.73 7.22 5.58 15.77 8.81c3.59,0.11 8.86,2.95 13.02,4.14 4.43,1.27 8.94,2.1 14.2,3.02l-4.12 11.01zm22.35 -65.43c-1.78,1.1 -3.6,0.97 -6.4,0.86 -5.37,-0.22 -10.87,-1.32 -15.6,-3.18 -11.66,-4.59 -21.15,-14.35 -25.92,-25.89 -1.87,-4.52 -2.96,-10.53 -3.17,-15.61 -0.15,-3.57 -0.23,-4.03 0.82,-5.84 -1.32,-5.24 2.19,-12.34 4.2,-16.41 2.42,-4.9 5.16,-8.26 8.58,-11.68 4.15,-4.16 18.06,-14.65 27.5,-12.74 1.8,-1.1 3.59,-0.97 6.42,-0.85 24.73,1.02 43.63,20.01 44.68,44.68l-0.83 5.81c2.28,9.2 -8.75,24.12 -12.76,28.11 -4.2,4.19 -18.16,14.61 -27.52,12.74zm174.36 -198.06c-0.25,0.84 -0.03,0.5 -0.8,1.52l-9.63 8.97c-1.14,2.14 -1.6,2.65 -3.74,3.8 -0.75,1.82 -8.91,10.34 -10.69,11.01 -1.24,2.59 0.09,1.23 -2.45,2.51 -0.69,2.1 -9.49,11.05 -11.26,11.63l-2.89 2.72 -9.24 10.09c-1.21,1.02 -0.65,0.56 -1.54,0.93 -1.09,2.32 -0.82,2.05 -3.1,3.17 -0.69,2.03 -3.77,4.6 -5.32,6.2 -1.57,1.61 -4.1,4.88 -5.93,5.45 -0.74,1.87 -0.1,1.19 -1.9,1.92 -0.29,1.12 0.3,-0.08 -0.49,1.15 -0.09,0.15 -0.45,0.58 -0.57,0.73l-10.71 9.99c-1.24,2.51 0.1,1.15 -2.38,2.42 -0.52,1.28 -0.1,0.64 -1.22,1.95l-8.63 8.89c-3.39,3.57 -2.48,2.34 -2.63,1.93l-10.5 -12.29c-1.29,-1.56 -0.42,-0.2 -1.25,-2.02 -1.34,-0.4 0.3,0.95 -1.52,-0.81 -1.64,-1.6 -0.5,-0.55 -0.8,-1.53 -2.12,-0.96 -0.73,-0.12 -2.4,-1.6 -3.49,-3.09 -10.82,-8.36 -11.54,-10.05 -2.62,-0.33 -10.4,-5.22 -13.32,-6.88l2.11 -7.32c0.06,-0.12 0.27,-0.2 0.32,-0.48 0.04,-0.27 0.21,-0.32 0.33,-0.46 -0.23,-3 1.99,-10.35 3,-12.2 0.78,-4.88 2.88,-11.31 4.17,-15.94 0.75,-2.7 1.46,-5.19 2.16,-7.69 0.42,-1.45 0.66,-2.5 1.02,-3.82l1.58 -3.5c-0.08,-2.59 1.39,-8.4 2.58,-10.62 0.47,-2.59 3.26,-14.53 5.04,-16.86 -0.19,-2.45 5.56,-23.43 6.65,-25.29 0.46,-2.92 1.27,-5.37 2.08,-8.33 0.36,-1.32 0.63,-2.38 1.04,-3.83 0.59,-2.08 0.28,-2.07 1.53,-3.46 -0.06,-4.48 4.11,-15.93 5.32,-21.12 5.63,0.82 20.74,8.03 27.21,11.11l2.85 1.68c6.16,2.17 38.59,21.98 42.54,28.02 0.98,0.24 0.68,0.08 1.7,0.76 0.49,0.33 0.76,0.65 1.12,0.95l7.37 6.9c2.32,1.01 3.08,1.4 4.27,4.08 2.16,0.9 5.82,4.96 7.6,6.85 1.33,1.39 1.32,1.23 1.95,2.7 2.32,1.04 7.14,6.39 8.26,8.86l-7.35 7.21zm-160.9 -93.05c2.44,-0.74 6.97,-0.15 9.22,0.33l13.86 1.93c-0.13,2.69 -0.01,6.25 -1.16,8.26 0.82,3.22 0.05,7.64 -0.39,11.03l-1.17 15.36 -1.07 12.59 -1.14 15.37 -6.79 83.75 -16.54 -3.33c-0.96,-8.29 -2.2,-16.29 -3.27,-24.66 -0.77,-6.02 -3.29,-19.46 -2.72,-24.6 -1.89,-2.51 -1.84,-11.5 -2.76,-15.4l-0.72 -11.22c-1.39,-1.77 -9.08,-63.22 -9.64,-70.61l23.75 0.94c0.1,-0.17 0.37,0.17 0.54,0.26zm-87.76 -25.54c-1.33,1.12 -1.33,0.97 -3.51,1.56 -1.41,0.38 -2.55,0.62 -3.79,0.97 -2.8,0.8 -4.83,1.63 -7.68,2.05 -1.19,0.86 -10.73,3.83 -12.9,4.66 -4.06,1.56 -8.93,4.28 -12.9,4.59 -1.66,2.11 -11.8,5.93 -14.87,7.51 -4.29,2.22 -11.11,6.43 -15.14,7.73l-26.15 17.02c-0.81,1.13 0.43,0.2 -1.51,1.71 -1.31,1.02 0.46,-0.08 -1.7,0.83 -1.16,1.96 -8.72,8.05 -10.89,8.57l-2.04 2.49c-0.92,0.89 -1.26,1.11 -2.24,1.93l-13.04 12.12c-2.95,2.95 -5.2,5.88 -8.07,8.71 -1.94,1.92 -2.49,2.43 -4.04,4.33l-4.43 4.26c-0.45,1.82 -6.77,9.81 -8.57,10.91 -0.96,2.28 0.49,0.09 -1.19,2.14 -0.72,0.89 -0.43,0.4 -1.36,1.06l-1.85 3.36c-0.97,1.29 -1.27,1.78 -2.3,3.28l-12 18.7c-0.57,0.73 -0.67,0.67 -0.86,0.81l-14.98 29.35c0.14,2.96 -3.5,10.02 -4.85,13.56 -0.96,2.53 -3.84,11.75 -4.67,12.89l-3.99 14.64c-1.87,9.27 -4.03,17.4 -5.44,26.9 -1.41,9.43 -2,19.67 -2.92,28.57 -0.44,15.33 -0.22,29.53 1.35,44.39 1.56,14.75 4.58,26.37 7.09,40.02 1.14,2.22 3.2,9.58 2.94,11.95l11.42 30.07c1.77,1.8 4.92,10.04 6.55,13.22 1.51,2.96 6.04,10.49 6.34,12.95l19.88 30.01 -0.22 -0.22 2.12 1.85c0.62,0.7 0.74,0.98 1.19,1.58 2.57,3.52 6.39,7.32 8.14,10.77 1.57,0.27 -0.02,-0.7 1.65,1.05 6.4,6.68 10.55,12.27 18.78,19.71 1.44,1.3 2.28,1.98 3.64,3.34l3.09 3.51c1.59,0.4 -0.06,-0.99 2.12,1.06 1.79,1.68 0.54,0.62 0.94,1.55 2.92,1.25 7.63,5.74 10.95,8.21l2.68 2.53c0.06,-0.13 0.25,0.32 0.36,0.49l-0.23 -0.23 26.7 17.32c0.16,0.1 1.68,0.99 1.76,1.04 2.22,1.63 0.58,0.3 1.56,1.52 2.39,0.28 10.67,5.15 13.41,6.59 2.59,1.35 11.46,4.58 12.47,6.17l30.38 11.55c2.48,-0.25 8.52,1.53 10.85,2.71 7.45,1.25 15.01,3.37 23.21,4.82 8.03,1.42 15.61,2.38 23.95,3.1 18.64,1.62 34.4,0.82 52.77,-0.3 6.89,-1.09 13.95,-1.78 20.91,-2.95 6.7,-1.13 13.37,-2.9 20.11,-4.36l14.63 -4c1.3,-0.88 10.6,-3.78 13.41,-4.85 3.35,-1.27 10.15,-4.78 13.05,-4.65l29.35 -14.98 24.82 -16.57c1.53,-0.81 -0.47,-0.08 1.32,-0.44 0.96,-1.37 -0.61,-0.07 1.5,-1.73 1.28,-1 -0.35,0.05 1.69,-0.83 1.02,-1.76 14.43,-11.65 18.86,-16.31 1.48,-1.55 4,-4.26 5.97,-4.86 0.85,-1.59 -0.27,-0.08 1.25,-1.88l18.69 -19.37c0.45,-1.79 6.78,-9.82 8.57,-10.9 0.97,-2.31 -0.5,-0.08 1.19,-2.15 0.71,-0.88 0.43,-0.4 1.35,-1.05l16.15 -25.34c0.57,-0.75 0.67,-0.68 0.86,-0.81 1.36,-4.21 5.42,-10.65 7.73,-15.14 1.72,-3.31 5.05,-12.92 7.52,-14.87 0.28,-3.75 3.27,-9.42 4.78,-13.41 0.9,-2.4 3.63,-11.19 4.46,-12.39l4 -14.61c1.84,-9.15 4.07,-17.57 5.45,-26.91 1.41,-9.58 1.79,-18.91 2.91,-28.37 0.45,-15.27 0.34,-29.75 -1.32,-44.78 -1.62,-14.7 -4.73,-26.37 -7.11,-39.92 -1.06,-1.73 -3.18,-9.67 -2.94,-11.85l-5.68 -15.03c-1.62,-4.36 -4.81,-10.96 -5.74,-15.05 -1.78,-1.83 -4.91,-10.03 -6.54,-13.22 -1.49,-2.9 -6.05,-10.47 -6.35,-12.96 -1.33,-1.03 -0.72,-0.32 -1.84,-1.95l-18.03 -28.06 0.22 0.22c-2.42,-1.62 -10.51,-12.37 -11.45,-14.19 -1.08,-0.21 -0.51,0.42 -1.64,-1.07 -0.8,-1.06 -0.5,-0.84 -0.75,-1.79l-3.51 -3.08c-5.54,-5.55 -8.35,-9.36 -15.26,-15.49 -1.39,-1.22 -1.92,-1.69 -3.25,-3.03l-2.75 -3.16c-1.31,-0.34 -0.26,0.69 -2.13,-1.04 -1.2,-1.1 -0.48,-0.08 -0.72,-1.36 -1.82,-0.93 -12.6,-9.09 -14.19,-11.44l0.22 0.23 -15.09 -10.09c-2.59,-1.67 -4.83,-3.13 -7.68,-4.89 -3.08,-1.9 -5.6,-2.79 -7.23,-4.92 -2.39,-0.28 -10.64,-5.12 -13.42,-6.59 -3.04,-1.59 -10.9,-4.49 -12.76,-6.3l-30.05 -11.42c-2.42,0.25 -9.8,-1.82 -11.96,-2.92 -13.6,-2.54 -25.19,-5.49 -39.94,-7.11 -14.92,-1.63 -29.4,-1.73 -44.73,-1.33 -9.42,1.15 -18.83,1.49 -28.28,2.91 -5.93,0.88 -22.71,5.1 -26.59,4.87z"/>
 </g>
</svg>
