<svg id="Camada_2" data-name="Camada 2" xmlns="http://www.w3.org/2000/svg" xmlns:xlink="http://www.w3.org/1999/xlink" viewBox="0 0 19.37 20.06"><defs><style>.cls-1,.cls-4{opacity:0.2;isolation:isolate;}.cls-2{fill:#c6c6c6;}.cls-3{fill:url(#Gradiente_sem_nome_39);}.cls-4{fill:#fff;}</style><linearGradient id="Gradiente_sem_nome_39" x1="1.52" y1="11.36" x2="20.89" y2="11.36" gradientUnits="userSpaceOnUse"><stop offset="0" stop-color="#1d1d1b"/><stop offset="0.02" stop-color="#2a2a28"/><stop offset="0.07" stop-color="#4b4b4a"/><stop offset="0.12" stop-color="#666665"/><stop offset="0.17" stop-color="#787878"/><stop offset="0.22" stop-color="#838383"/><stop offset="0.28" stop-color="#878787"/><stop offset="0.67" stop-color="#9d9d9c"/><stop offset="0.89" stop-color="#ededed"/><stop offset="1" stop-color="#1d1d1b"/></linearGradient></defs><path class="cls-1" d="M11.2,2.37a9.68,9.68,0,1,0,9.69,9.68A9.66,9.66,0,0,0,11.2,2.37Zm0,5.53a4.15,4.15,0,1,1-4.15,4.15A4.15,4.15,0,0,1,11.2,7.9Z" transform="translate(-1.52 -1.68)"/><path class="cls-2" d="M11.2,6.17a5.19,5.19,0,1,0,5.19,5.19A5.18,5.18,0,0,0,11.2,6.17Zm0,3.11a2.08,2.08,0,1,1-2.07,2.08A2.08,2.08,0,0,1,11.2,9.28Z" transform="translate(-1.52 -1.68)"/><path class="cls-3" d="M11.21,1.68a9.68,9.68,0,1,0,9.68,9.68A9.66,9.66,0,0,0,11.21,1.68Zm0,5.53a4.15,4.15,0,1,1-4.15,4.15A4.15,4.15,0,0,1,11.21,7.21Z" transform="translate(-1.52 -1.68)"/><path class="cls-4" d="M11.2,1.68a9.66,9.66,0,0,0-9.68,9.68c0,.12,0,.23,0,.35a9.67,9.67,0,0,1,19.33,0c0-.12,0-.23,0-.35A9.66,9.66,0,0,0,11.2,1.68Zm-4.13,10c0,.12,0,.24,0,.35a4.15,4.15,0,0,0,8.3,0c0-.11,0-.23,0-.34a4.15,4.15,0,0,1-8.27,0Z" transform="translate(-1.52 -1.68)"/></svg>