<?xml version="1.0" encoding="UTF-8"?>
<!DOCTYPE svg PUBLIC "-//W3C//DTD SVG 1.1//EN" "http://www.w3.org/Graphics/SVG/1.1/DTD/svg11.dtd">
<!-- Creator: CorelDRAW (Versão de avaliação) -->
<svg xmlns="http://www.w3.org/2000/svg" xml:space="preserve" width="5.9266mm" height="5.9266mm" version="1.1" shape-rendering="geometricPrecision" text-rendering="geometricPrecision" image-rendering="optimizeQuality" fill-rule="evenodd" clip-rule="evenodd"
viewBox="0 0 592.66 592.66"
 xmlns:xlink="http://www.w3.org/1999/xlink"
 xmlns:xodm="http://www.corel.com/coreldraw/odm/2003">
 <g id="Camada_x0020_1">
  <metadata id="CorelCorpID_0Corel-Layer"/>
  <g id="_105553209607872">
   <path fill="#F6A535" d="M450.81 423.4l0 -28.53c-4.67,0.09 -8.22,0.16 -9.75,0.18 -0.82,0.02 -3.79,-0.21 -4.3,0.31l-12.97 13.41 0 4.68 2.32 31.77 20.83 -21.52c0.48,-0.5 2.77,-0.28 3.5,-0.29l0.37 -0.01zm0 -32.76l0 -21.27c-6.65,7.72 -14.02,16.29 -19.16,22.27 6.4,0.46 12.84,0.13 19.16,-1zm93.51 106.17c2.21,-2.83 4.33,-5.79 6.37,-8.87 0.6,-0.9 1.13,-1.76 1.64,-2.6 0.95,-1.49 1.88,-2.99 2.67,-4.52l0.01 -0.02c3.5,-6 6.71,-12.66 9.08,-19.25 1.52,-4.03 2.81,-8.09 3.78,-11.92 0.67,-2.67 1.27,-5.32 1.79,-7.97l0.11 -0.51 0.05 0.08c0.56,-2.73 1.01,-5.4 1.34,-7.93 0.19,-1.3 0.38,-2.63 0.55,-3.99 0.56,-4.42 0.48,-7.97 0.84,-11.64 0.23,-2.43 0.04,-6.47 -0.19,-10.19 -0.16,-5.02 -0.66,-9.71 -1.47,-14.52l-0.01 -0.03 0 -0.01c-0.23,-1.43 -0.49,-2.88 -0.74,-4.36 -1.3,-7.45 -3.43,-14.88 -6.16,-22 -2.26,-6.2 -5.07,-12.43 -8.32,-17.96 -0.51,-0.88 -1.02,-1.73 -1.53,-2.57 -4.43,-7.65 -8.78,-13.75 -14.28,-20.01 -0.55,-0.65 -1.11,-1.31 -1.69,-1.98 -2.93,-3.35 -5.63,-5.67 -8.13,-8.37 -0.98,-1.06 -2.49,-2.39 -4.16,-3.78 -3.76,-3.31 -8.01,-6.57 -12.52,-9.62l0.01 0.05c-1.07,-0.72 -2.15,-1.42 -3.25,-2.11 -1.25,-0.82 -2.51,-1.62 -3.79,-2.37l-0.01 -0.01 0 0c-2.36,-1.45 -4.78,-2.81 -7.26,-4.09 -6.68,-3.52 -14.27,-6.49 -21.65,-8.74 -1.45,-0.47 -2.94,-0.94 -4.52,-1.34 -0.75,-0.18 -1.49,-0.36 -2.21,-0.54 -0.39,-0.1 -0.78,-0.19 -1.17,-0.29 -3.98,-0.96 -7.63,-1.69 -11.17,-2.25 -6.95,-1.14 -13.39,-1.61 -20.58,-1.56 -1.17,-0.01 -2.37,-0.02 -3.6,-0.02 -17.22,0 -32.84,3.92 -47.94,9.94 -3.05,1.22 -5.74,2.7 -8.56,3.83 -1.07,0.43 -1.61,0.87 -2.65,1.4 -4.87,2.47 -9.45,5.36 -13.99,8.37l0 -0.04c-0.39,0.27 -0.79,0.54 -1.18,0.82l-0.27 0.18c-1.66,1.11 -3.15,2.33 -4.78,3.56 -1.66,1.24 -2.91,2.31 -4.48,3.63 -3.45,2.9 -10.08,8.94 -12.7,12.07l-1.49 1.79c-2.93,3.2 -5.51,6.4 -7.94,9.77 -1.17,1.54 -2.32,3.11 -3.32,4.74 -0.58,0.95 -0.99,1.53 -1.59,2.45 -5.33,8.14 -10.47,18.52 -13.51,27.71 -1.24,3.75 -2.33,7.49 -3.27,11.21l-0.27 0.98c-0.3,1.06 -0.48,1.94 -0.72,3.04 -0.23,1.01 -0.42,1.85 -0.6,2.87 -0.09,0.51 -0.18,0.99 -0.27,1.47 -0.13,0.71 -0.26,1.41 -0.39,2.12 -0.13,0.7 -0.26,1.42 -0.4,2.16 -0.22,1.26 -0.37,2.47 -0.5,3.7l-0.02 0.08 -0.07 -0.09c-0.39,3.04 -0.66,5.99 -0.79,8.77l-0.01 0.2c-0.13,2.03 -0.22,4.06 -0.26,6.1l0 5.01c0.1,5.24 0.5,10.52 1.23,15.87 0.28,2.26 0.63,4.45 1.05,6.63l0.1 0.55c0.31,1.64 0.65,3.09 1.01,4.56l0.02 0.1 0.03 0.1 0 0.02 0.02 0.09c0.14,0.57 0.28,1.14 0.42,1.74 1.9,8.16 4.79,16.83 8.5,24.37l0.29 0.58c2.11,4.64 4.62,9.24 7.37,13.47 0.24,0.4 0.48,0.78 0.72,1.17 0.68,1.07 1.35,2.1 2.01,3.09l0.65 1.02c0.6,0.93 1.14,1.65 1.79,2.56 0.39,0.54 0.73,1.02 1.1,1.51 0.56,0.78 1.15,1.57 1.74,2.37 0.9,1.2 1.78,2.27 2.64,3.28 1.2,1.52 2.46,2.84 3.75,4.32l0.2 0.24c0.31,0.36 0.61,0.73 0.91,1.1 1.75,2.2 5.37,5.52 8.42,8.29 6.57,6.29 13.58,11.48 20.95,15.89 4.73,2.89 9.69,5.46 14.74,7.69 7.97,3.82 17.41,6.77 26.37,8.71 2.81,0.64 5.56,1.16 8.34,1.58 1.16,0.2 2.31,0.33 3.47,0.47l0.46 0.05c4.54,0.58 8.74,0.89 12.99,0.98 4.32,0.15 9.28,0.18 12.01,-0.11l0.53 -0.06c2.22,-0.13 4.5,-0.33 6.81,-0.6 9.98,-0.95 19.34,-3.18 28.32,-6.33 5.85,-1.99 11.66,-4.4 16.67,-7.03 0.43,-0.22 0.86,-0.45 1.28,-0.68 0.19,-0.1 0.37,-0.19 0.55,-0.29 1.36,-0.74 2.7,-1.48 4.03,-2.25 0.68,-0.37 1.36,-0.73 2.05,-1.06 1.04,-0.52 1.54,-0.99 2.54,-1.59 5.18,-3.12 9.96,-6.72 14.72,-10.43 1.57,-1.23 2.97,-2.56 4.51,-3.9 1.56,-1.36 2.73,-2.52 4.2,-3.94 3.23,-3.15 9.4,-9.66 11.78,-12.97l0.85 -1.19zm-117.27 -105.63c-1.09,-0.14 -2.18,-0.31 -3.26,-0.5l0 -57.63 14.97 0c0.61,3.06 1.03,6.19 1.26,9.38 1.31,17.95 -3.62,34.91 -12.97,48.75z"/>
   <polygon fill="white" points="423.79,333.05 423.79,413.9 383.48,454.66 403.46,474.75 450.81,427.18 450.81,333.05 "/>
  </g>
  <path fill="#BDBFC1" d="M519.87 146.41c-14.31,10.71 -38.23,23.41 -56.09,33.45 -26.84,15.09 -153.74,92.33 -169.27,97.41 -10.39,-9.02 -41.86,-25.4 -55.58,-33.29 -19.54,-11.23 -36.37,-20.58 -54.71,-32.11 -17.98,-11.3 -38.4,-22.85 -56.74,-33.12 -16.93,-9.47 -40.05,-21.94 -54.29,-32.34l0.53 -50.36c29.19,14.48 209.34,123.97 225.55,129.04l109.96 -65.65c37.52,-20.78 73.59,-44.15 110.43,-63.29l0.21 50.26zm-242.44 312.99c-20.33,-81.91 0.02,-149.55 82.33,-190.76 67.97,-34.03 156.62,-15.06 205.69,39.75 3.9,4.35 3,4.8 8.37,9.86 3.32,-16.72 1.3,-151.23 1.3,-179.36 0,-81.25 -2.53,-95.58 -92.74,-95.57 -129.84,0 -259.71,0.22 -389.55,-0.01 -85.73,-0.15 -74.89,41.78 -74.89,112.24 0,60.17 0,120.33 0,180.49 0,61.94 -14.07,122.78 62.99,123.39 65.41,0.51 131.06,-0.11 196.5,-0.03z"/>
 </g>
</svg>
