<?xml version="1.0" encoding="UTF-8"?>
<!DOCTYPE svg PUBLIC "-//W3C//DTD SVG 1.1//EN" "http://www.w3.org/Graphics/SVG/1.1/DTD/svg11.dtd">
<!-- Creator: CorelDRAW (Versão de avaliação) -->
<svg xmlns="http://www.w3.org/2000/svg" xml:space="preserve" width="5.9266mm" height="5.9266mm" version="1.1" shape-rendering="geometricPrecision" text-rendering="geometricPrecision" image-rendering="optimizeQuality" fill-rule="evenodd" clip-rule="evenodd"
viewBox="0 0 592.66 592.66"
 xmlns:xlink="http://www.w3.org/1999/xlink"
 xmlns:xodm="http://www.corel.com/coreldraw/odm/2003">
 <g id="Camada_x0020_1">
  <metadata id="CorelCorpID_0Corel-Layer"/>
  <path fill="#BDBFC1" d="M71.74 71.55l416.36 0c30.15,0 54.82,24.67 54.82,54.81l0 212.19 0 3.98 -46.28 0 0 -87.21 -203.74 151 116.6 86.42 -8.95 0 -25.22 0 -36.38 0 -118.05 0 -36.38 0 -25.22 0 -81.82 0 -5.74 0c-0.46,0 -0.92,-0.01 -1.38,-0.02l-0.05 0c-0.45,-0.01 -0.9,-0.03 -1.35,-0.05l-0.03 -0.01 0 0 -0.03 0c-0.44,-0.02 -0.89,-0.05 -1.33,-0.08l-0.05 -0.01c-0.44,-0.03 -0.87,-0.07 -1.3,-0.11l-0.13 -0.02c-0.41,-0.04 -0.83,-0.09 -1.24,-0.14l-0.13 -0.02c-0.4,-0.05 -0.8,-0.1 -1.2,-0.17l-0.19 -0.02c-0.38,-0.06 -0.76,-0.13 -1.14,-0.19l-0.23 -0.05c-0.36,-0.06 -0.73,-0.13 -1.1,-0.21l-0.27 -0.05c-0.35,-0.08 -0.7,-0.15 -1.04,-0.23l-0.29 -0.07c-0.33,-0.08 -0.65,-0.16 -0.97,-0.24l-0.41 -0.1c-0.28,-0.08 -0.56,-0.15 -0.83,-0.23l-0.52 -0.15c-0.26,-0.07 -0.52,-0.15 -0.78,-0.23l-0.53 -0.17c-0.23,-0.07 -0.46,-0.15 -0.7,-0.22 -0.2,-0.07 -0.41,-0.14 -0.62,-0.22 -0.21,-0.07 -0.43,-0.15 -0.64,-0.22 -15.02,-5.43 -27.04,-17.25 -32.74,-32.13l-0.02 -0.06c-0.15,-0.38 -0.29,-0.77 -0.43,-1.15l-0.03 -0.09c-0.13,-0.38 -0.26,-0.76 -0.39,-1.14l-0.01 -0.03 -0.1 -0.31 0 -0.02c-0.09,-0.27 -0.18,-0.55 -0.26,-0.83l-0.15 -0.48c-0.07,-0.25 -0.14,-0.5 -0.21,-0.75 -0.06,-0.21 -0.11,-0.41 -0.17,-0.62 -0.05,-0.2 -0.1,-0.4 -0.15,-0.6 -0.07,-0.26 -0.14,-0.53 -0.2,-0.8l-0.11 -0.49c-0.07,-0.28 -0.13,-0.57 -0.2,-0.87l-0.08 -0.39c-0.06,-0.33 -0.13,-0.66 -0.19,-0.99l-0.05 -0.31c-0.07,-0.37 -0.13,-0.74 -0.19,-1.11l-0.03 -0.2c-0.06,-0.39 -0.11,-0.78 -0.16,-1.17l-0.03 -0.18c-0.05,-0.4 -0.09,-0.8 -0.14,-1.2l-0.01 -0.16c-0.05,-0.43 -0.08,-0.85 -0.12,-1.27l0 -0.06c-0.03,-0.44 -0.06,-0.88 -0.09,-1.32l0 -0.08c-0.02,-0.45 -0.04,-0.9 -0.05,-1.35l0 -0.03c-0.01,-0.46 -0.02,-0.93 -0.02,-1.4l0 -0.22 0 -52.54 0 -9.75 0 -36.86 0 -212.19c0,-30.14 24.67,-54.81 54.81,-54.81zm471.18 307.52l0 6.09 0 48.42 -64.55 0 -18.27 0 0 51.32 -106.02 -78.58 106.02 -78.57 0 51.32 82.82 0zm-10.53 91.05c-6.42,8.79 -15.39,15.63 -25.8,19.39 -0.22,0.07 -0.43,0.15 -0.65,0.22 -0.2,0.08 -0.41,0.15 -0.62,0.22 -0.23,0.07 -0.46,0.15 -0.7,0.22l-0.53 0.17c-0.25,0.08 -0.51,0.16 -0.77,0.23l-0.52 0.15c-0.28,0.08 -0.55,0.15 -0.83,0.23l-0.41 0.1c-0.32,0.08 -0.65,0.16 -0.97,0.24l-0.29 0.07c-0.35,0.08 -0.7,0.15 -1.05,0.23l-0.27 0.05c-0.36,0.08 -0.73,0.15 -1.09,0.21l-0.23 0.05c-0.34,0.06 -0.68,0.11 -1.02,0.17l0 -21.95 35.75 0z"/>
  <polygon fill="white" points="69.53,124.55 279.41,255.16 490.1,124.14 490.51,177.12 279.82,308.55 68.3,176.71 "/>
  <path fill="#277EC1" fill-rule="nonzero" d="M575.73 451.85l-97.36 0 0 69.26 -154.88 -114.79 154.88 -114.78 0 69.26 97.36 0 0 91.05zm-48.68 0m-48.68 34.63m-77.44 -22.76m0 -114.79m77.44 -22.76m48.68 34.63m48.68 45.52"/>
 </g>
</svg>
