<?xml version="1.0" encoding="UTF-8"?>
<!DOCTYPE svg PUBLIC "-//W3C//DTD SVG 1.1//EN" "http://www.w3.org/Graphics/SVG/1.1/DTD/svg11.dtd">
<!-- Creator: CorelDRAW (Versão de avaliação) -->
<svg xmlns="http://www.w3.org/2000/svg" xml:space="preserve" width="5.9266mm" height="5.9266mm" version="1.1" shape-rendering="geometricPrecision" text-rendering="geometricPrecision" image-rendering="optimizeQuality" fill-rule="evenodd" clip-rule="evenodd"
viewBox="0 0 592.66 592.66"
 xmlns:xlink="http://www.w3.org/1999/xlink"
 xmlns:xodm="http://www.corel.com/coreldraw/odm/2003">
 <g id="Camada_x0020_1">
  <metadata id="CorelCorpID_0Corel-Layer"/>
  <path fill="#5181A5" d="M130.91 23.26l0 80.63 330.83 0c5.63,-24.19 2.78,-52.7 2.78,-77.85 0,-6.51 -4.62,-11.12 -11.12,-11.12l-314.15 0c-6.4,0 -8.34,1.94 -8.34,8.34zm383.65 169.59c15.36,0 27.8,12.44 27.8,27.8 0,15.35 -12.44,27.8 -27.8,27.8 -15.35,0 -27.8,-12.45 -27.8,-27.8 0,-15.36 12.45,-27.8 27.8,-27.8zm-330.82 380.86c23.03,5.37 202.14,5.37 225.18,0l0.24 -178.16c0.08,-10.36 2.14,-19.22 -8.58,-19.22l-208.5 0c-13.58,0 -8.35,28.71 -8.34,41.7l0 155.68zm-166.81 -378.08l0 227.96c0,54.77 86.75,47.8 104.98,27.14 28.87,-32.73 -25.02,-124.44 56.27,-124.44l241.86 0c50.15,0 41.76,47.82 41.69,75.06 -0.11,47.27 2.72,63.94 63.95,63.94 29.01,0 50.04,-12.61 50.04,-41.7l0 -227.96c0,-29.1 -21.03,-41.7 -50.04,-41.7l-458.71 0c-12.87,0 -27.22,3.59 -35.12,9.35 -8.38,6.12 -14.92,18.62 -14.92,32.35z"/>
  <g id="_105553379122432">
   <path fill="#FED768" d="M446.03 321.83c70.14,0 127,56.86 127,127 0,70.14 -56.86,127 -127,127 -70.14,0 -127,-56.86 -127,-127 0,-70.14 56.86,-127 127,-127z"/>
   <g>
    <path fill="white" d="M424.42 366.4c-5.89,1.87 -5.3,6.57 -4.91,13.37 0.34,5.92 0.65,11.91 0.98,17.85 0.66,12.08 1.32,24.18 1.98,36.29 0.33,5.94 0.66,11.85 0.98,17.82 0.82,15.56 4.66,12.48 25.53,12.48 22.24,0 18.73,2.98 20.85,-35.67 0.67,-12.22 2.96,-43.34 2.96,-54.13 0,-6.95 -3.89,-8.43 -10.72,-8.4 -6,0.03 -34.37,-0.64 -37.65,0.39z"/>
    <path fill="white" d="M440.26 475.98c-37.57,8.55 -24.13,62.91 11.99,55.09 13.28,-2.88 25.1,-16.82 21.26,-33.77 -3.02,-13.32 -16.36,-25.17 -33.25,-21.32z"/>
   </g>
  </g>
 </g>
</svg>
