<svg xmlns="http://www.w3.org/2000/svg" xmlns:xlink="http://www.w3.org/1999/xlink" viewBox="0 0 20.98 15.26"><defs><style>.cls-1{fill:#fff;}</style><symbol id="E-mail_-_cinza" data-name="E-mail - cinza" viewBox="0 0 34 24.73"><path d="M0,0V24.73H34V0ZM32.72,1.53,17,13.57,1.28,1.53Zm0,22H1.28V4L17,16.13,32.72,4Z"/></symbol><symbol id="Relógio_-_cinza" data-name="Relógio - cinza" viewBox="0 0 34 34"><circle cx="17.5" cy="16.56" r="14.87"/><path d="M17,0A17,17,0,1,0,34,17,17,17,0,0,0,17,0Zm0,30.28A13.28,13.28,0,1,1,30.28,17,13.3,13.3,0,0,1,17,30.28Z"/><path class="cls-1" d="M25.21,16.89H18.05v-9a1.59,1.59,0,1,0-3.18,0V19.33a1.6,1.6,0,0,0,1.59,1.6,1.63,1.63,0,0,0,.94-.31h7.81a1.86,1.86,0,0,0,0-3.72Z"/></symbol></defs><g id="Camada_1" data-name="Camada 1"><use width="34" height="24.73" transform="translate(0 0) scale(0.62)" xlink:href="#E-mail_-_cinza"/></g><g id="relogio"><use width="34" height="34" transform="translate(13.75 14.18) rotate(-90) scale(0.18)" xlink:href="#Relógio_-_cinza"/></g></svg>