<?xml version="1.0" encoding="UTF-8"?>
<!DOCTYPE svg PUBLIC "-//W3C//DTD SVG 1.1//EN" "http://www.w3.org/Graphics/SVG/1.1/DTD/svg11.dtd">
<!-- Creator: CorelDRAW (Versão de avaliação) -->
<svg xmlns="http://www.w3.org/2000/svg" xml:space="preserve" width="5.9266mm" height="5.9266mm" version="1.1" shape-rendering="geometricPrecision" text-rendering="geometricPrecision" image-rendering="optimizeQuality" fill-rule="evenodd" clip-rule="evenodd"
viewBox="0 0 592.66 592.66"
 xmlns:xlink="http://www.w3.org/1999/xlink"
 xmlns:xodm="http://www.corel.com/coreldraw/odm/2003">
 <g id="Camada_x0020_1">
  <metadata id="CorelCorpID_0Corel-Layer"/>
  <g id="_105553209593024">
   <path fill="#FF1F1F" d="M411.58 414.08c-2.18,-3.7 -41.91,-41.29 -48.94,-49.43 -6.14,-7.09 -4.39,-17.76 1.58,-23.7 6.18,-6.16 16.78,-7.65 24,-1.36 6.16,5.37 25.51,25.41 32.8,32.72 3.37,3.36 13.25,14.09 16.34,15.98 3.94,-2.26 41.03,-41.73 49.42,-48.94 6.09,-5.22 16.74,-5.37 23.72,1.59 6.07,6.07 7.69,16.91 1.33,24 -6.92,7.72 -46.69,45.85 -48.66,49.14 2.31,3.86 41.74,41.06 48.92,49.43 6.1,7.13 4.36,17.77 -1.59,23.73 -6.09,6.08 -16.83,7.67 -23.98,1.32 -7.38,-6.58 -24.64,-24.55 -32.81,-32.71 -3.1,-3.11 -13.64,-14.41 -16.35,-15.97 -2.51,1.53 -35.06,34.71 -41.17,40.81 -2.63,2.63 -5.3,5.71 -8.28,8.11 -16.89,13.64 -38.59,-10.68 -25.03,-25.56 6.73,-7.38 46.84,-46 48.7,-49.16zm-109.37 6.34c2.79,72.07 65.31,132.72 141.51,128.82 20.11,-1.03 37.83,-6.03 53.63,-13.86 15.34,-7.61 19.15,-11.58 30.31,-20.43 1.62,-1.29 2.75,-2.81 4.21,-4.23 13.39,-12.83 23.44,-27.72 30.75,-45.33 36.27,-87.47 -29.08,-190.84 -131.56,-186.44 -72.92,3.13 -131.82,64.65 -128.85,141.47z"/>
   <path fill="white" d="M411.58 414.08c-1.86,3.16 -41.97,41.78 -48.7,49.16 -13.56,14.88 8.14,39.2 25.03,25.56 2.98,-2.4 5.65,-5.48 8.28,-8.11 6.11,-6.1 38.66,-39.28 41.17,-40.81 2.71,1.56 13.25,12.86 16.35,15.97 8.17,8.16 25.43,26.13 32.81,32.71 7.15,6.35 17.89,4.76 23.98,-1.32 5.95,-5.96 7.69,-16.6 1.59,-23.73 -7.18,-8.37 -46.61,-45.57 -48.92,-49.43 1.97,-3.29 41.74,-41.42 48.66,-49.14 6.36,-7.09 4.74,-17.93 -1.33,-24 -6.98,-6.96 -17.63,-6.81 -23.72,-1.59 -8.39,7.21 -45.48,46.68 -49.42,48.94 -3.09,-1.89 -12.97,-12.62 -16.34,-15.98 -7.29,-7.31 -26.64,-27.35 -32.8,-32.72 -7.22,-6.29 -17.82,-4.8 -24,1.36 -5.97,5.94 -7.72,16.61 -1.58,23.7 7.03,8.14 46.76,45.73 48.94,49.43z"/>
  </g>
  <path fill="#BDBFC1" d="M519.87 146.34c-14.31,10.72 -38.23,23.41 -56.09,33.45 -26.84,15.09 -153.74,92.34 -169.27,97.42 -10.39,-9.03 -41.86,-25.4 -55.58,-33.29 -19.54,-11.23 -36.37,-20.58 -54.71,-32.11 -17.98,-11.3 -38.4,-22.86 -56.74,-33.12 -16.93,-9.47 -40.05,-21.95 -54.29,-32.35l0.53 -50.36c29.19,14.49 209.34,123.98 225.55,129.05l109.96 -65.65c37.52,-20.78 73.59,-44.15 110.43,-63.3l0.21 50.26zm-242.44 313c-20.33,-81.91 0.02,-149.55 82.33,-190.76 67.97,-34.04 156.62,-15.06 205.69,39.75 3.9,4.35 3,4.8 8.37,9.85 3.32,-16.71 1.3,-151.23 1.3,-179.36 0,-81.25 -2.53,-95.57 -92.74,-95.57 -129.84,0 -259.71,0.22 -389.55,0 -85.73,-0.15 -74.89,41.77 -74.89,112.23 0,60.17 0,120.34 0,180.5 0,61.94 -14.07,122.78 62.99,123.39 65.41,0.51 131.06,-0.11 196.5,-0.03z"/>
 </g>
</svg>
