<?xml version="1.0" encoding="UTF-8"?>
<!DOCTYPE svg PUBLIC "-//W3C//DTD SVG 1.1//EN" "http://www.w3.org/Graphics/SVG/1.1/DTD/svg11.dtd">
<!-- Creator: CorelDRAW (Versão de avaliação) -->
<svg xmlns="http://www.w3.org/2000/svg" xml:space="preserve" width="5.9266mm" height="5.9266mm" version="1.1" shape-rendering="geometricPrecision" text-rendering="geometricPrecision" image-rendering="optimizeQuality" fill-rule="evenodd" clip-rule="evenodd"
viewBox="0 0 592.66 592.66"
 xmlns:xlink="http://www.w3.org/1999/xlink"
 xmlns:xodm="http://www.corel.com/coreldraw/odm/2003">
 <g id="Camada_x0020_1">
  <metadata id="CorelCorpID_0Corel-Layer"/>
  <g id="_105553380740000">
   <path fill="#55BA52" d="M419.44 425.02c5.6,-7.98 43.13,-43.8 55.12,-55.85 5.08,-5.11 12.11,-14.73 24.31,-12.34 9.2,1.8 16.9,10.53 14.96,22.39 -1.68,10.16 -46.19,50.6 -54.48,58.89 -45.07,45.07 -37.39,46.24 -82.96,0.74 -4.59,-4.58 -14.67,-12.9 -16.02,-21.14 -1.9,-11.62 4.95,-19.91 14.35,-22.08 19.6,-4.54 31.53,22.83 44.72,29.39zm-4.91 -143.76c-67.06,12.07 -125.51,74.58 -110.22,157.45 12.05,65.36 75.25,122.76 156.42,108.53 65.56,-11.48 123.73,-74.73 109.53,-155.93 -11.48,-65.57 -75,-124.58 -155.73,-110.05z"/>
   <path fill="white" d="M419.44 425.02c5.6,-7.98 43.13,-43.8 55.12,-55.85 5.08,-5.11 12.11,-14.73 24.31,-12.34 9.2,1.8 16.9,10.53 14.96,22.39 -1.68,10.16 -46.19,50.6 -54.48,58.89 -45.07,45.07 -37.39,46.24 -82.96,0.74 -4.59,-4.58 -14.67,-12.9 -16.02,-21.14 -1.9,-11.62 4.95,-19.91 14.35,-22.08 19.6,-4.54 31.53,22.83 44.72,29.39z"/>
  </g>
  <path fill="#BDBFC1" d="M519.87 146.35c-14.31,10.71 -38.23,23.41 -56.09,33.45 -26.84,15.09 -153.74,92.33 -169.27,97.42 -10.39,-9.03 -41.86,-25.41 -55.58,-33.3 -19.54,-11.22 -36.37,-20.57 -54.71,-32.11 -17.98,-11.3 -38.4,-22.85 -56.74,-33.12 -16.93,-9.47 -40.05,-21.94 -54.29,-32.34l0.53 -50.36c29.19,14.48 209.34,123.97 225.55,129.04l109.96 -65.64c37.52,-20.79 73.59,-44.16 110.43,-63.3l0.21 50.26zm-242.44 312.99c-20.33,-81.9 0.02,-149.55 82.33,-190.76 67.97,-34.03 156.62,-15.05 205.69,39.75 3.9,4.35 3,4.81 8.37,9.86 3.32,-16.72 1.3,-151.23 1.3,-179.36 0,-81.25 -2.53,-95.58 -92.74,-95.57 -129.84,0 -259.71,0.22 -389.55,-0.01 -85.73,-0.15 -74.89,41.78 -74.89,112.24 0,60.17 0,120.33 0,180.5 0,61.94 -14.07,122.77 62.99,123.38 65.41,0.52 131.06,-0.11 196.5,-0.03z"/>
 </g>
</svg>
