<?xml version="1.0" encoding="UTF-8"?>
<!DOCTYPE svg PUBLIC "-//W3C//DTD SVG 1.1//EN" "http://www.w3.org/Graphics/SVG/1.1/DTD/svg11.dtd">
<!-- Creator: CorelDRAW (Versão de avaliação) -->
<svg xmlns="http://www.w3.org/2000/svg" xml:space="preserve" width="5.9266mm" height="5.9266mm" version="1.1" shape-rendering="geometricPrecision" text-rendering="geometricPrecision" image-rendering="optimizeQuality" fill-rule="evenodd" clip-rule="evenodd"
viewBox="0 0 592.66 592.66"
 xmlns:xlink="http://www.w3.org/1999/xlink"
 xmlns:xodm="http://www.corel.com/coreldraw/odm/2003">
 <g id="Camada_x0020_1">
  <metadata id="CorelCorpID_0Corel-Layer"/>
  <path fill="#AAACAE" d="M25.43 577.53l541.84 0.04 -0.36 -234.53 -172.48 -0.09c-7.01,10.95 -19.14,28.65 -30.08,36.14 -34.06,0.72 -68.62,0.09 -102.74,0.14 -16.26,0.03 -32.69,3.62 -41.97,-6.59 -7.65,-8.42 -13.53,-19.33 -21.56,-29.52l-172.68 0.46 0.03 233.95z"/>
  <path fill="#D2D4D5" d="M214.57 277.62c-0.77,-12.92 2.42,-11.48 15.69,-11.55l140.04 0.47c5.72,1.2 13.19,7.57 5.39,12.87 -7.92,5.38 -131.79,2.24 -148.32,2.24 -10.78,0 -6.1,0.41 -12.8,-4.03zm-1.15 -59.16c6.02,-6.3 -3.54,-7.22 16.84,-8.01l65.6 0.3c14.88,0 72.17,-4.59 83.09,4.63 -1.76,12.64 1.39,10.03 -14.26,11.07l-112.42 -0.23c-34.44,0.07 -31.71,4.04 -38.85,-7.76zm32.62 -47.79c-39.08,0.18 -31.02,1.68 -31.52,-11.36 14.94,-9.63 66.76,-4.06 87.56,-4.06 21.89,0 85.94,-5.94 75.59,11.04 -4.83,7.91 -108.87,4.27 -131.63,4.38zm-91.71 157.29c69.86,0.19 41.3,-3.77 77.57,35.47l126.22 0.64c8.42,-7.13 8.42,-7.92 14.57,-15.88 18.46,-23.87 0.5,-18.59 65.54,-20.52l-0.1 -227.01 -80.05 -1.52c-2.44,-4.09 -4.41,-1.8 -4.6,-17.51l0.22 -66.55 -199.41 0.05 0.04 312.83z"/>
  <path fill="#AAACAE" d="M453.45 209.12l0.04 118.86 106.43 -0.03c-5.17,-13.37 -10.45,-19.02 -17.9,-31.82 -6.79,-11.65 -12.52,-21.62 -19.64,-33.27 -11.68,-19.08 -31.53,-48.41 -38.76,-66.77l-30.12 -0.05 -0.05 13.08z"/>
  <path fill="#AAACAE" d="M32.45 326.95l106.62 0.97 0 -130.47 -26.88 -1.6c-4.76,5.15 -6.45,7.31 -10.89,14.86l-30.33 50.67c-12.1,20.56 -30.56,46.99 -38.52,65.57z"/>
  <path fill="#4C4B4D" d="M214.52 159.31c0.5,13.04 -7.56,11.54 31.52,11.36 22.76,-0.11 126.8,3.53 131.63,-4.38 10.35,-16.98 -53.7,-11.04 -75.59,-11.04 -20.8,0 -72.62,-5.57 -87.56,4.06z"/>
  <path fill="#4C4B4D" d="M213.42 218.46c7.14,11.8 4.41,7.83 38.85,7.76l112.42 0.23c15.65,-1.04 12.5,1.57 14.26,-11.07 -10.92,-9.22 -68.21,-4.63 -83.09,-4.63l-65.6 -0.3c-20.38,0.79 -10.82,1.71 -16.84,8.01z"/>
  <path fill="#4C4B4D" d="M214.57 277.62c6.7,4.44 2.02,4.03 12.8,4.03 16.53,0 140.4,3.14 148.32,-2.24 7.8,-5.3 0.33,-11.67 -5.39,-12.87l-140.04 -0.47c-13.27,0.07 -16.46,-1.37 -15.69,11.55z"/>
  <polygon fill="#D2D4D5" points="369.02,84.75 425.85,84.36 369.44,28.56 "/>
 </g>
</svg>
