<?xml version="1.0" encoding="UTF-8"?>
<!DOCTYPE svg PUBLIC "-//W3C//DTD SVG 1.1//EN" "http://www.w3.org/Graphics/SVG/1.1/DTD/svg11.dtd">
<!-- Creator: CorelDRAW (Versão de avaliação) -->
<svg xmlns="http://www.w3.org/2000/svg" xml:space="preserve" width="5.9266mm" height="5.9266mm" version="1.1" shape-rendering="geometricPrecision" text-rendering="geometricPrecision" image-rendering="optimizeQuality" fill-rule="evenodd" clip-rule="evenodd"
viewBox="0 0 592.66 592.66"
 xmlns:xlink="http://www.w3.org/1999/xlink"
 xmlns:xodm="http://www.corel.com/coreldraw/odm/2003">
 <g id="Camada_x0020_1">
  <metadata id="CorelCorpID_0Corel-Layer"/>
  <g id="_105553276869472">
   <path fill="#0088CC" d="M262.32 92.23l189.05 0c14.52,0 27.44,6.83 35.75,17.44l85.43 109.35c1.99,2.56 3.18,5.78 3.18,9.28 0,3.5 -1.19,6.72 -3.19,9.29l-85.42 109.34c-8.31,10.61 -21.23,17.43 -35.75,17.43l-189.05 0 106.3 -136.06 -106.3 -136.07z"/>
   <path fill="#004D71" d="M368.62 228.3l77.68 -99.42c3.01,-3.85 4.8,-8.7 4.8,-13.97 0,-12.52 -10.15,-22.67 -22.67,-22.67l-166.11 -0.01 106.3 136.07z"/>
   <path fill="#FFD527" d="M330.35 500.43l-189.06 0c-14.52,0 -27.44,-6.83 -35.74,-17.44l-85.44 -109.35c-1.99,-2.56 -3.18,-5.78 -3.18,-9.28 0,-3.5 1.19,-6.72 3.2,-9.29l85.42 -109.34c8.3,-10.61 21.22,-17.43 35.74,-17.43l189.06 0 -106.31 136.06 106.31 136.07z"/>
   <path fill="#D19C2E" d="M224.04 364.36l-77.67 99.43c-3.01,3.85 -4.82,8.69 -4.82,13.96 0,12.52 10.16,22.68 22.68,22.68l166.12 0 -106.31 -136.07z"/>
  </g>
 </g>
</svg>
